<?xml version="1.0" standalone="no"?>
<!DOCTYPE svg PUBLIC "-//W3C//DTD SVG 20010904//EN"
 "http://www.w3.org/TR/2001/REC-SVG-20010904/DTD/svg10.dtd">
<svg version="1.0" xmlns="http://www.w3.org/2000/svg"
 width="1024.000000pt" height="1024.000000pt" viewBox="0 0 1024.000000 1024.000000"
 preserveAspectRatio="xMidYMid meet">

<g transform="translate(0.000000,1024.000000) scale(0.100000,-0.100000)"
fill="#000000" stroke="none">
<path d="M4 8803 c3 -791 6 -1445 7 -1453 0 -8 -3 -1665 -7 -3683 l-7 -3667
2722 0 2721 0 0 80 c0 64 -3 80 -15 80 -11 0 -15 12 -15 49 0 60 -22 81 -87
81 -32 0 -43 4 -43 15 0 12 -16 15 -80 15 l-80 0 0 -79 c0 -79 0 -80 -27 -84
l-28 -4 28 -2 c43 -2 32 -21 -13 -21 -36 0 -40 3 -40 25 0 23 -4 25 -40 25
l-40 0 0 55 0 55 -40 0 c-29 0 -40 4 -40 15 0 8 -7 15 -16 15 -14 0 -16 8 -12
49 6 61 -5 85 -33 71 -17 -9 -19 -7 -20 17 -1 15 -5 4 -9 -26 -14 -94 -49 -95
-58 -2 -4 50 -5 51 -38 51 -33 0 -34 1 -34 40 0 22 -4 40 -10 40 -5 0 -10 -18
-10 -40 0 -29 -4 -40 -15 -40 -11 0 -15 11 -15 40 l0 40 -55 0 -55 0 0 40 0
40 -80 0 -80 0 0 50 c0 28 -4 50 -10 50 -5 0 -10 -4 -10 -10 0 -5 -18 -10 -40
-10 -22 0 -40 5 -40 10 0 6 -18 10 -40 10 -32 0 -40 -4 -40 -19 0 -13 -10 -20
-31 -25 -49 -9 -129 -7 -129 4 0 6 24 10 53 10 57 0 88 13 72 29 -12 12 -125
2 -125 -10 0 -5 -25 -9 -55 -9 l-55 0 0 40 0 40 -40 0 -40 0 0 40 c0 36 -2 40
-25 40 -22 0 -25 4 -25 40 l0 40 40 0 40 0 0 -45 c0 -43 1 -45 28 -44 16 1 20
3 10 6 -13 3 -18 15 -18 39 0 20 -6 42 -14 50 -16 16 -86 19 -86 4 0 -18 -18
-11 -47 18 l-28 27 -3 -42 c-3 -43 -3 -43 -43 -43 -22 0 -39 5 -39 11 0 22
-32 38 -52 26 -9 -6 -21 -7 -25 -3 -4 5 -2 11 5 13 26 10 2 63 -29 63 -8 0
-10 15 -7 49 6 61 -5 85 -32 71 -27 -15 -35 -13 -69 16 -20 16 -31 35 -31 51
0 24 -1 25 -22 11 -13 -9 -24 -25 -26 -37 -6 -36 -32 -25 -32 14 0 34 -1 35
-40 35 -36 0 -40 -2 -40 -25 0 -16 -6 -25 -15 -25 -11 0 -15 11 -15 40 0 36
-2 40 -25 40 -20 0 -25 5 -25 25 0 23 -4 25 -40 25 -29 0 -40 4 -40 15 0 8 -6
15 -14 15 -8 0 -17 7 -20 15 -3 9 -21 22 -40 30 -19 8 -37 19 -41 25 -10 16
-81 12 -95 -5 -18 -22 -30 -18 -30 10 0 23 -4 25 -40 25 -22 0 -40 5 -40 11 0
6 -10 19 -22 30 l-23 18 23 1 c12 0 22 5 22 10 0 6 -18 10 -40 10 -22 0 -40 5
-40 10 0 6 -12 10 -27 10 -16 0 -35 4 -43 10 -13 8 -13 9 0 14 8 2 22 7 30 9
8 3 3 6 -12 6 -26 1 -28 4 -28 41 0 29 -4 40 -15 40 -11 0 -15 11 -15 40 0 36
-2 40 -25 40 -22 0 -25 4 -25 35 0 22 -6 38 -15 41 -10 4 -15 20 -15 45 0 35
-3 39 -25 39 -24 0 -25 3 -25 60 0 45 -4 62 -15 66 -8 4 -15 12 -15 20 0 8
-10 14 -25 14 -22 0 -25 4 -25 40 0 36 3 40 25 40 23 0 25 4 25 40 0 29 4 40
15 40 8 0 15 9 15 20 0 11 4 20 9 20 5 0 18 17 28 37 10 20 25 40 33 43 8 4
30 14 48 23 19 9 40 17 49 17 8 0 21 7 29 15 8 8 21 12 29 9 17 -7 20 -24 4
-24 -7 0 -9 -25 -4 -83 6 -74 5 -86 -15 -120 l-22 -37 26 0 c14 0 26 -4 26
-10 0 -5 18 -10 40 -10 32 0 40 4 40 18 0 14 8 18 34 19 37 1 76 18 76 33 0 6
-7 10 -16 10 -9 0 -14 6 -12 12 3 8 19 12 43 10 38 -4 38 -4 32 27 -9 44 -74
181 -86 181 -5 0 -20 -18 -33 -41 -19 -34 -24 -38 -34 -25 -6 9 -21 16 -33 16
-25 0 -26 2 -5 42 22 42 63 75 102 83 18 3 32 12 32 20 0 18 16 20 24 3 5 -10
7 -10 12 0 3 6 19 12 35 12 18 0 29 5 29 14 0 19 14 22 90 20 117 -3 110 -1
110 -34 0 -19 5 -30 14 -30 8 0 18 -10 22 -22 8 -27 7 -33 -5 -33 -6 0 -15 -5
-20 -10 -8 -8 -2 -11 18 -10 16 0 27 3 25 7 -2 4 0 10 6 13 6 4 10 3 9 -2 -3
-20 2 -27 11 -13 5 8 20 15 34 15 14 1 22 -3 19 -9 -4 -5 3 -7 16 -3 15 4 29
-1 42 -14 16 -16 19 -16 19 -3 0 13 10 14 60 10 38 -3 59 -2 55 4 -4 6 3 7 18
1 14 -6 27 -8 29 -6 2 2 5 -5 5 -16 2 -16 -2 -19 -15 -13 -54 23 -144 5 -159
-32 -3 -8 -9 -14 -15 -14 -5 0 -6 4 -3 10 3 5 0 7 -8 4 -8 -3 -18 -1 -22 5 -3
6 -11 11 -16 11 -6 0 -7 -5 -4 -10 8 -13 4 -13 -41 6 -22 9 -34 19 -27 21 7 2
21 -1 32 -6 25 -14 71 5 71 28 0 11 -3 13 -8 4 -6 -10 -14 -9 -36 3 -16 8 -31
12 -34 9 -3 -2 10 -11 28 -18 22 -10 28 -16 17 -20 -8 -3 -23 0 -33 6 -11 7
-32 11 -49 10 -16 -2 -43 -3 -60 -4 -22 0 -26 -3 -15 -10 12 -7 11 -10 -7 -15
-13 -4 -23 -11 -23 -18 0 -6 -7 -2 -15 8 -8 11 -15 15 -15 8 0 -6 -14 -19 -31
-29 l-30 -18 5 -90 c8 -126 16 -150 49 -151 14 -1 32 -6 39 -12 7 -6 15 -10
18 -11 3 0 25 -3 50 -8 43 -7 44 -7 15 -13 -26 -6 -27 -8 -11 -15 11 -5 26 -3
37 3 10 7 28 12 38 12 11 0 23 5 26 10 8 14 48 13 80 -2 23 -10 28 -10 36 4 6
10 17 14 35 10 19 -3 22 -7 12 -13 -9 -6 -7 -9 10 -9 12 0 22 5 22 10 0 6 33
10 80 10 48 0 80 -4 80 -10 0 -7 6 -7 20 0 10 6 46 13 80 17 43 4 60 10 60 21
0 11 3 12 15 2 8 -6 19 -9 25 -5 5 3 14 -5 19 -18 9 -22 12 -23 54 -13 30 7
43 14 40 23 -7 18 112 17 164 -1 31 -11 52 -12 87 -4 25 5 44 13 41 17 -2 5 7
13 22 20 21 9 30 9 49 -4 26 -17 66 -12 84 10 6 7 19 11 28 8 10 -2 28 0 42 6
14 5 19 10 12 10 -7 1 -20 7 -27 15 -12 12 -12 15 1 20 9 3 25 6 36 6 19 0 20
4 14 53 -3 28 -6 78 -6 109 0 49 -3 58 -21 63 -11 4 -22 5 -23 3 -2 -1 4 -36
14 -76 9 -40 14 -71 10 -70 -13 5 -80 89 -96 120 -11 21 -22 28 -42 27 -15 0
-21 -3 -14 -6 8 -3 12 -25 11 -61 -1 -59 -14 -165 -19 -147 -1 6 -6 -3 -10
-20 l-8 -30 -1 30 c-1 23 -3 27 -11 15 -8 -13 -10 -12 -10 3 0 11 -4 15 -12
11 -8 -5 -9 -2 -5 9 8 21 -29 32 -73 23 -27 -5 -30 -3 -30 20 0 25 2 26 53 22
44 -2 53 0 54 14 1 14 -9 18 -55 20 -48 3 -57 6 -60 23 -2 18 3 20 53 20 30 0
55 -3 55 -7 0 -5 4 -8 8 -8 4 0 6 16 4 36 -3 20 -8 31 -12 25 -5 -8 -27 -9
-76 -3 -66 7 -71 7 -88 -15 -18 -25 -35 -26 -52 -4 -8 10 -15 11 -31 3 -24
-13 -89 -19 -99 -9 -4 4 14 7 41 7 67 0 53 6 -32 14 -68 7 -72 6 -79 -16 -11
-33 -13 -45 -16 -115 -5 -113 -38 -64 -38 56 0 65 -3 81 -15 81 -18 0 -19 9
-5 44 8 23 15 26 57 26 27 0 62 7 78 16 40 22 92 28 193 26 61 -2 82 0 82 10
0 8 4 7 10 -4 15 -24 112 -43 152 -29 17 6 47 11 66 11 36 0 103 19 112 32 3
4 17 12 30 18 36 16 67 35 87 52 10 9 28 19 39 22 12 4 24 16 27 26 3 12 14
20 26 20 12 0 21 6 21 14 0 8 5 18 12 22 7 5 9 2 6 -7 -4 -10 3 -14 23 -15 16
-1 26 2 24 6 -3 4 41 6 98 3 94 -3 104 -6 122 -28 12 -14 27 -25 34 -25 9 0
11 -8 7 -25 -5 -19 -2 -25 10 -25 9 0 27 -9 40 -19 13 -11 33 -17 43 -14 10 3
28 -3 39 -13 24 -21 76 -28 102 -14 10 5 36 12 58 14 22 1 57 13 77 25 20 11
45 21 56 21 11 0 17 5 14 10 -4 6 5 10 19 10 14 0 26 -4 26 -10 0 -5 10 -10
21 -10 12 0 54 -10 93 -21 57 -17 85 -20 141 -15 111 11 117 12 199 46 101 42
163 40 232 -10 40 -28 57 -34 119 -38 89 -6 168 11 218 45 32 22 42 25 57 15
11 -6 21 -8 24 -3 3 4 19 6 37 3 20 -3 27 -7 18 -12 -8 -6 1 -11 27 -16 21 -4
53 -13 71 -21 39 -16 146 -17 210 -2 58 14 95 32 147 72 38 30 136 70 146 59
3 -2 -1 -7 -8 -9 -17 -6 -5 -23 16 -23 9 0 37 -18 61 -40 50 -46 107 -60 231
-55 101 4 172 28 219 73 46 45 94 82 130 101 14 8 29 18 32 23 12 19 21 332
19 723 0 220 -2 408 -4 419 -2 17 -12 18 -120 17 -64 -1 -124 -5 -133 -8 -32
-12 -179 -117 -206 -147 -31 -35 -57 -88 -57 -118 0 -11 -4 -18 -9 -16 -5 1
-64 55 -131 118 -125 117 -193 170 -220 170 -8 0 7 -19 33 -42 27 -24 119
-117 205 -208 86 -91 212 -224 281 -296 l126 -130 -3 318 -3 319 103 -3 103
-3 -1 -415 c0 -460 -9 -690 -27 -690 -16 0 -456 445 -552 559 l-80 94 -3 -307
-2 -306 -104 0 -104 0 -6 313 c-4 171 -8 423 -9 559 l-2 246 -59 -31 c-33 -17
-74 -45 -92 -62 -42 -39 -69 -55 -93 -55 -21 0 -37 -16 -44 -45 -2 -11 -5 26
-6 83 l-1 102 -139 0 c-138 0 -140 0 -184 -30 -24 -16 -68 -41 -98 -56 -30
-15 -72 -46 -94 -68 l-40 -40 -3 101 -3 102 -132 -6 -132 -6 -50 -37 c-28 -21
-77 -52 -110 -70 -33 -18 -75 -47 -93 -64 l-32 -30 0 105 0 104 -83 0 -82 -1
-70 -54 c-38 -30 -82 -68 -97 -85 -15 -16 -28 -25 -28 -18 0 18 -53 -3 -81
-33 -12 -13 -26 -24 -31 -24 -5 0 -19 -9 -31 -21 -12 -12 -45 -39 -74 -60 -28
-21 -59 -49 -67 -61 -9 -12 -16 -18 -16 -13 0 6 -26 37 -58 70 -63 66 -90 99
-181 221 l-61 82 -70 -2 c-68 -2 -72 -4 -135 -54 -35 -29 -67 -52 -70 -52 -3
0 -24 -9 -48 -19 -82 -37 -77 -40 -77 51 l0 80 -31 -6 c-17 -3 -186 -6 -375
-6 l-343 0 -35 -31 c-20 -17 -52 -35 -73 -40 -54 -14 -94 -34 -121 -59 -13
-13 -30 -19 -39 -16 -11 4 -14 2 -9 -9 8 -22 0 -19 -57 24 -187 142 -409 173
-615 87 -81 -34 -198 -112 -256 -171 -17 -16 -27 -23 -24 -15 4 11 0 16 -13
16 -12 0 -18 -5 -14 -14 3 -10 -1 -11 -17 -6 -17 5 -20 3 -15 -10 5 -13 3 -15
-9 -8 -20 11 -93 -7 -118 -30 -11 -10 -27 -18 -36 -18 -8 0 -32 -11 -51 -25
-20 -13 -39 -21 -43 -18 -3 4 -6 1 -6 -5 0 -7 -7 -12 -15 -12 -8 0 -15 -4 -15
-10 0 -5 -9 -10 -19 -10 -20 0 -22 -7 -37 -100 l-7 -45 -12 34 -11 34 -14 -32
c-9 -24 -15 -29 -22 -19 -6 10 -14 7 -33 -14 -13 -16 -29 -28 -35 -28 -5 0
-10 -8 -11 -17 0 -11 -3 -13 -6 -5 -2 6 -8 12 -12 12 -10 0 -34 -107 -27 -119
4 -5 2 -12 -3 -15 -5 -4 -13 17 -18 46 -6 42 -12 53 -28 55 -16 1 -16 1 -2 -3
9 -3 17 -10 17 -16 0 -17 -61 -68 -81 -68 -11 0 -19 -7 -19 -16 0 -27 -20 -4
-21 24 l-1 27 -8 -25 c-4 -14 -8 -40 -9 -57 -1 -18 -5 -33 -11 -33 -5 0 -10
-15 -11 -32 l-1 -33 -13 35 -13 35 -7 -42 c-8 -44 -30 -58 -38 -25 -4 16 -5
16 -6 0 -1 -14 -10 -18 -41 -18 -29 0 -40 -4 -40 -15 0 -8 -3 -15 -7 -15 -14
1 -49 35 -57 55 -5 13 -10 15 -13 8 -7 -19 -83 -17 -83 2 0 17 -35 21 -45 5
-3 -5 -13 -10 -21 -10 -11 0 -14 16 -14 75 l0 75 -39 0 c-30 0 -40 4 -43 17
-3 16 -7 14 -31 -10 -15 -15 -39 -27 -52 -27 -28 0 -28 0 -28 125 0 66 0 67
-4 12 -6 -86 -23 -69 -25 26 l-2 82 -6 -85 c-3 -47 -7 -74 -8 -61 -1 13 -10
29 -19 36 -13 10 -16 25 -14 68 2 50 0 57 -23 72 -31 21 -34 45 -6 45 17 0 20
7 20 40 0 28 -4 40 -14 40 -10 0 -16 14 -19 42 -3 41 -4 40 -5 -10 -2 -45 -5
-53 -19 -50 -16 3 -18 14 -15 91 3 80 1 87 -17 87 -17 0 -20 10 -26 80 -7 80
-7 80 -36 80 -27 0 -29 3 -29 40 0 22 -4 40 -10 40 -5 0 -10 24 -10 54 0 46 3
56 25 70 28 18 33 36 10 36 -11 0 -15 11 -15 40 l0 40 -65 0 -65 0 0 160 0
160 -25 0 c-22 0 -25 4 -25 40 0 29 -4 40 -15 40 -11 0 -15 11 -15 40 0 29 -4
40 -15 40 -11 0 -15 11 -15 40 0 22 -4 40 -10 40 -6 0 -10 33 -10 80 l0 80
-40 0 -40 0 0 40 c0 22 5 40 10 40 6 0 10 18 10 40 0 22 -4 40 -10 40 -5 0
-10 18 -10 40 0 29 -4 40 -15 40 -11 0 -15 11 -15 40 0 36 -2 40 -25 40 -25 0
-25 1 -25 80 0 47 4 80 10 80 6 0 10 18 10 40 0 38 2 40 30 40 l30 0 0 80 c0
47 4 80 10 80 6 0 10 18 10 40 0 38 2 40 30 40 22 0 30 -5 30 -17 0 -13 3 -14
11 -6 18 18 -14 43 -55 43 -33 0 -36 2 -36 30 0 20 -5 30 -15 30 -11 0 -15 11
-15 40 0 29 4 40 15 40 8 0 15 5 15 10 0 6 -18 10 -40 10 -22 0 -40 -4 -40
-10 0 -5 -5 -10 -10 -10 -6 0 -5 8 2 20 10 16 10 24 0 40 -7 12 -8 20 -2 20 6
0 10 50 10 131 0 122 -1 131 -20 136 -26 7 -26 19 0 26 26 7 28 67 2 83 -13 9
-17 21 -14 58 3 31 9 46 18 46 10 0 14 15 14 55 l0 55 41 0 c38 0 40 1 37 28
-2 16 -9 27 -18 27 -11 0 -16 13 -18 48 -3 41 -5 47 -18 36 -19 -15 -31 -4
-15 15 21 26 -6 54 -48 51 -20 -1 -25 0 -12 2 23 4 23 7 17 64 -6 62 0 72 24
39 10 -14 26 -20 52 -20 l38 0 0 80 c0 64 3 80 15 80 19 0 19 19 0 26 -11 5
-15 22 -15 70 l0 64 -40 0 -40 0 0 40 c0 33 3 40 20 40 17 0 20 7 20 40 0 29
4 40 15 40 11 0 15 -11 15 -40 0 -29 4 -40 15 -40 11 0 15 11 15 40 0 29 4 40
15 40 11 0 15 11 15 40 0 30 -4 40 -16 40 -15 0 -16 9 -10 68 11 114 16 132
37 132 15 0 19 7 19 31 0 22 9 40 31 60 17 16 35 29 40 29 14 0 11 78 -3 82
-9 3 -9 6 0 12 7 4 12 2 12 -3 0 -6 11 -11 25 -11 23 0 25 4 25 41 0 38 2 41
23 35 12 -3 28 -6 35 -6 6 0 12 -9 12 -20 0 -13 7 -20 20 -20 20 0 25 17 21
63 -2 13 5 17 28 17 21 0 31 -5 31 -15 0 -8 5 -15 10 -15 6 0 10 5 10 10 0 13
66 13 89 1 13 -7 18 -6 18 4 0 7 -7 11 -16 8 -11 -3 -10 0 3 11 11 9 15 16 10
16 -6 0 -16 -6 -23 -12 -10 -11 -12 -10 -9 3 4 20 -51 71 -103 96 -23 11 -44
32 -57 58 -11 22 -35 69 -53 105 -18 36 -39 79 -47 95 -8 17 -23 42 -34 57
-25 36 -23 44 22 113 43 64 53 109 23 103 -10 -2 -20 -14 -21 -28 -3 -21 -2
-22 12 -11 20 17 21 5 2 -14 -11 -11 -16 -12 -23 -2 -12 16 -15 67 -4 67 5 0
7 9 4 20 -3 11 0 20 6 20 6 0 11 17 11 40 0 28 4 40 14 40 8 0 17 -6 19 -12 3
-7 3 1 0 18 -3 23 -1 33 11 37 20 8 21 37 1 37 -12 0 -15 20 -15 120 l0 120
25 0 c23 0 25 4 25 40 0 31 -4 40 -17 40 -13 0 -14 3 -5 12 9 9 15 9 24 0 7
-7 34 -12 60 -12 45 0 48 2 48 26 0 15 8 33 18 40 15 12 13 13 -17 14 l-33 0
7 74 c4 45 3 76 -3 80 -6 3 -8 15 -5 26 4 15 0 20 -16 20 -15 0 -21 -6 -21
-21 0 -13 4 -18 12 -13 7 4 8 3 4 -5 -13 -20 -26 -1 -26 40 0 39 0 39 40 39
l40 0 0 40 0 40 -41 -2 c-30 -2 -43 1 -46 12 -4 12 -3 13 5 1 7 -9 19 -11 36
-7 29 7 33 21 12 42 -20 19 -36 18 -36 -3 0 -15 -2 -14 -15 3 -21 28 -18 34
14 34 17 0 31 6 35 16 3 9 6 63 6 120 0 86 3 104 15 104 12 0 15 13 15 55 l0
55 40 0 c25 0 40 -5 40 -13 0 -7 9 -18 20 -25 16 -10 24 -10 40 0 16 10 20 24
20 65 l0 53 40 0 c36 0 40 3 40 25 0 16 6 25 15 25 11 0 15 -11 15 -40 0 -39
1 -40 35 -40 34 0 35 1 35 40 0 22 -4 40 -10 40 -5 0 -10 18 -10 40 l0 40
-521 0 -521 0 6 -1437z m661 1377 c3 -5 -1 -10 -9 -10 -9 0 -16 5 -16 10 0 6
4 10 9 10 6 0 13 -4 16 -10z m138 -25 c-3 -9 -8 -14 -10 -11 -3 3 -2 9 2 15 9
16 15 13 8 -4z m-49 -41 c25 -10 19 -34 -9 -34 -18 0 -25 5 -25 20 0 21 8 24
34 14z m-164 -491 c-1 -24 -2 -26 -11 -10 -5 9 -7 22 -4 27 10 17 15 11 15
-17z m22 -355 c-9 -9 -15 -9 -24 0 -9 9 -7 12 12 12 19 0 21 -3 12 -12z m-40
-40 c-9 -9 -12 -7 -12 12 0 19 3 21 12 12 9 -9 9 -15 0 -24z m68 10 c0 -16 -3
-19 -11 -11 -6 6 -8 16 -5 22 11 17 16 13 16 -11z m-240 -418 c0 -5 -12 -10
-27 -9 -25 0 -26 1 -8 9 27 12 35 12 35 0z m70 -60 c0 -5 -7 -10 -15 -10 -8 0
-15 5 -15 10 0 6 7 10 15 10 8 0 15 -4 15 -10z m28 -165 l1 -20 -9 20 c-5 11
-8 31 -8 45 l0 25 8 -25 c4 -14 8 -34 8 -45z m-12 -50 c-3 -20 -16 -31 -16
-13 0 13 8 28 16 28 1 0 1 -7 0 -15z m98 -270 c3 -8 1 -15 -4 -15 -6 0 -10 7
-10 15 0 8 2 15 4 15 2 0 6 -7 10 -15z m-104 -285 c0 -5 -2 -10 -4 -10 -3 0
-8 5 -11 10 -3 6 -1 10 4 10 6 0 11 -4 11 -10z m-30 -30 c0 -5 -4 -10 -10 -10
-5 0 -10 5 -10 10 0 6 5 10 10 10 6 0 10 -4 10 -10z m-373 -572 c-3 -7 -5 -2
-5 12 0 14 2 19 5 13 2 -7 2 -19 0 -25z m-30 -65 c-3 -10 -5 -4 -5 12 0 17 2
24 5 18 2 -7 2 -21 0 -30z m106 30 c-7 -2 -19 -2 -25 0 -7 3 -2 5 12 5 14 0
19 -2 13 -5z m7 -49 c0 -11 -5 -14 -16 -10 -9 3 -21 6 -27 6 -16 0 14 20 31
20 6 0 12 -7 12 -16z m-7 -31 c-7 -2 -19 -2 -25 0 -7 3 -2 5 12 5 14 0 19 -2
13 -5z m-76 -35 c-3 -8 -6 -5 -6 6 -1 11 2 17 5 13 3 -3 4 -12 1 -19z m223
-158 c0 -33 -3 -40 -20 -40 -17 0 -20 7 -20 40 0 33 3 40 20 40 17 0 20 -7 20
-40z m-249 -279 c-7 -19 -9 -1 -9 69 l1 95 8 -69 c6 -43 6 -80 0 -95z m41 -2
c6 -4 8 -15 3 -25 -7 -17 -9 -16 -15 6 -5 14 -8 43 -7 65 l0 40 4 -40 c3 -22
9 -43 15 -46z m68 -14 c0 -8 -7 -15 -15 -15 -8 0 -15 7 -15 15 0 8 7 15 15 15
8 0 15 -7 15 -15z m-40 -55 c0 -5 -5 -10 -11 -10 -5 0 -7 5 -4 10 3 6 8 10 11
10 2 0 4 -4 4 -10z m40 -210 c0 -22 -4 -40 -10 -40 -5 0 -10 18 -10 40 0 22 5
40 10 40 6 0 10 -18 10 -40z m50 -480 c0 -5 -4 -10 -10 -10 -5 0 -10 5 -10 10
0 6 5 10 10 10 6 0 10 -4 10 -10z m3 -289 c4 -1 7 -35 7 -76 l0 -75 -60 0 -60
0 0 40 c0 38 2 40 30 40 27 0 30 3 30 33 0 39 5 46 28 42 9 -2 20 -4 25 -4z
m107 -750 c0 -14 -5 -18 -20 -14 -25 7 -26 20 -2 26 9 3 18 5 20 6 1 0 2 -8 2
-18z m5298 -1591 c1 -283 0 -525 -3 -538 -5 -22 -9 -23 -105 -21 l-100 2 0
291 0 290 -53 -85 c-29 -46 -87 -133 -128 -194 -41 -60 -86 -129 -99 -152
l-24 -43 -21 38 c-11 20 -55 84 -96 142 -42 58 -106 149 -142 203 l-67 98 -2
-298 -3 -297 -100 3 c-55 1 -102 4 -104 7 -6 6 -7 892 -1 985 l5 84 38 3 c51
4 70 -10 142 -103 33 -43 89 -115 125 -160 36 -45 100 -133 143 -194 l78 -111
66 97 c83 124 203 283 213 283 4 0 13 14 20 31 12 29 102 148 121 160 5 3 28
3 52 0 l42 -6 3 -515z m-2595 485 c59 -21 192 -107 205 -132 7 -15 -4 -30 -62
-84 l-71 -67 -63 39 c-146 88 -300 74 -401 -37 -67 -73 -94 -145 -95 -249 0
-88 24 -159 79 -223 75 -89 216 -109 370 -51 63 24 75 40 75 103 l0 46 -104 0
-105 0 -3 98 c-2 53 -3 98 -3 98 0 1 91 4 203 7 l202 5 -2 -230 -3 -230 -80
-49 c-212 -130 -424 -136 -611 -18 -164 104 -242 267 -231 484 5 109 39 231
81 295 62 93 177 179 276 207 65 18 280 11 343 -12z m1120 15 l107 0 0 -77 c0
-43 -3 -88 -6 -100 l-6 -23 -229 0 -229 0 0 -114 0 -114 210 5 210 6 0 -112 0
-113 -215 4 -215 3 0 -107 0 -108 240 0 241 0 -3 -102 -3 -103 -335 0 -335 0
-3 534 -2 534 232 -6 c128 -4 281 -7 341 -7z m2027 -525 l0 -535 -104 0 -103
0 -7 103 c-4 56 -6 297 -5 535 l1 432 109 0 109 0 0 -535z m560 167 c0 -203
-3 -444 -7 -535 l-6 -167 -104 0 -103 0 0 535 0 535 110 0 110 0 0 -368z
m-5930 61 c-1 -5 -6 -18 -14 -31 -11 -21 -14 -22 -25 -8 -11 13 -11 19 -1 31
13 16 40 21 40 8z m3380 -413 c0 -5 -7 -10 -16 -10 -10 0 -14 -6 -11 -14 4
-10 1 -13 -9 -9 -8 3 -14 -1 -14 -11 0 -9 -7 -16 -15 -16 -17 0 -18 2 -9 25 4
10 21 23 38 31 38 16 36 16 36 4z m-2806 -225 c3 -8 1 -15 -4 -15 -6 0 -10 7
-10 15 0 8 2 15 4 15 2 0 6 -7 10 -15z m2341 -624 c33 -64 31 -71 -6 -35 -40
38 -113 144 -99 144 6 0 8 6 4 13 -4 6 12 -7 35 -31 23 -23 53 -64 66 -91z
m-42 119 c3 6 4 5 3 -2 -4 -19 -23 -20 -30 -2 -5 14 -4 15 8 5 10 -8 16 -9 19
-1z m41 -5 c-7 -16 -24 -21 -24 -6 0 8 7 13 27 20 1 1 0 -6 -3 -14z m-202 -57
c-6 -6 -7 0 -4 19 5 21 7 23 10 9 2 -10 0 -22 -6 -28z m-24 -11 c12 -11 22
-31 22 -43 0 -32 -56 -94 -85 -94 -26 0 -75 52 -75 80 0 24 28 56 64 74 32 16
38 14 74 -17z m-295 -55 c9 -2 17 2 17 8 0 14 22 -7 38 -36 10 -18 6 -21 -32
-33 -51 -15 -72 -8 -92 30 -13 26 -13 32 1 58 21 41 39 44 45 7 3 -19 12 -32
23 -34z m791 33 c-4 -8 -10 -15 -16 -15 -5 0 -6 4 -3 10 3 5 0 7 -9 4 -11 -4
-16 -26 -19 -87 l-3 -82 -2 93 -2 92 30 0 c22 0 28 -4 24 -15z m-1178 -41 c5
-26 3 -30 -19 -32 -23 -1 -24 0 -13 38 11 43 22 41 32 -6z m847 -94 c-12 -44
-23 -16 -22 53 l1 72 13 -53 c7 -29 11 -61 8 -72z m717 53 c8 -27 10 -55 5
-80 -5 -22 -10 -31 -12 -20 -3 9 -9 17 -14 17 -5 0 -9 32 -9 72 0 76 8 79 30
11z m-413 5 c-3 -7 -5 -2 -5 12 0 14 2 19 5 13 2 -7 2 -19 0 -25z m-1292 4
c-3 -3 -11 0 -18 7 -9 10 -8 11 6 5 10 -3 15 -9 12 -12z m35 8 c0 -5 -5 -10
-11 -10 -5 0 -7 5 -4 10 3 6 8 10 11 10 2 0 4 -4 4 -10z m-780 -30 c0 -5 -7
-10 -16 -10 -8 0 -12 5 -9 10 3 6 10 10 16 10 5 0 9 -4 9 -10z m1584 -5 c-4
-9 -16 -21 -28 -27 -19 -10 -19 -9 3 16 28 30 33 32 25 11z m-684 -17 c-37
-16 -60 -16 -60 -1 0 9 13 13 43 12 39 0 40 -1 17 -11z m417 -33 c-16 -14 -33
-23 -38 -19 -6 3 5 14 23 24 45 25 48 24 15 -5z m960 -1 c-3 -3 -12 -4 -19 -1
-8 3 -5 6 6 6 11 1 17 -2 13 -5z m93 -48 c0 -3 -4 -8 -10 -11 -5 -3 -10 -1
-10 4 0 6 5 11 10 11 6 0 10 -2 10 -4z m-2270 -20 c0 -3 -4 -8 -10 -11 -5 -3
-10 -1 -10 4 0 6 5 11 10 11 6 0 10 -2 10 -4z m60 -6 c0 -5 -2 -10 -4 -10 -3
0 -8 5 -11 10 -3 6 -1 10 4 10 6 0 11 -4 11 -10z m-24 -21 c10 -17 -13 -36
-27 -22 -12 12 -4 33 11 33 5 0 12 -5 16 -11z m-41 -39 c3 -5 1 -10 -4 -10 -6
0 -11 5 -11 10 0 6 2 10 4 10 3 0 8 -4 11 -10z m65 0 c0 -5 -5 -10 -11 -10 -5
0 -7 5 -4 10 3 6 8 10 11 10 2 0 4 -4 4 -10z m270 -76 c0 -8 -7 -14 -15 -14
-8 0 -15 9 -15 20 0 13 5 18 15 14 8 -4 15 -12 15 -20z m-359 -14 c5 0 9 -7 9
-15 0 -21 -14 -19 -36 7 -18 20 -18 21 -1 15 10 -4 23 -7 28 -7z m269 -4 c0
-3 -4 -8 -10 -11 -5 -3 -10 -1 -10 4 0 6 5 11 10 11 6 0 10 -2 10 -4z m-343
-33 c-3 -3 -11 -2 -17 2 -9 6 -9 10 1 16 14 8 27 -7 16 -18z m403 -33 c0 -5
-5 -10 -11 -10 -5 0 -7 5 -4 10 3 6 8 10 11 10 2 0 4 -4 4 -10z m-55 -50 c-3
-5 -10 -10 -16 -10 -5 0 -9 5 -9 10 0 6 7 10 16 10 8 0 12 -4 9 -10z m372
-356 c-3 -3 -12 -4 -19 -1 -8 3 -5 6 6 6 11 1 17 -2 13 -5z m723 -364 c0 -11
-7 -20 -15 -20 -8 0 -15 9 -15 20 0 11 7 20 15 20 8 0 15 -9 15 -20z m-50 -30
c0 -5 -7 -10 -15 -10 -8 0 -15 5 -15 10 0 6 7 10 15 10 8 0 15 -4 15 -10z
m-90 -14 c0 -3 -4 -8 -10 -11 -5 -3 -10 -1 -10 4 0 6 5 11 10 11 6 0 10 -2 10
-4z m143 -70 c4 -10 1 -13 -8 -9 -8 3 -12 9 -9 14 7 12 11 11 17 -5z m67 -46
c0 -5 -7 -10 -15 -10 -8 0 -15 5 -15 10 0 6 7 10 15 10 8 0 15 -4 15 -10z
m318 -212 c-7 -19 -38 -22 -38 -4 0 10 9 16 21 16 12 0 19 -5 17 -12z m388
-118 c13 0 24 -4 24 -8 0 -4 -36 -8 -80 -9 -44 -1 -80 2 -80 7 0 9 74 19 98
13 8 -2 25 -3 38 -3z m-6 -60 c13 -9 13 -11 0 -20 -8 -5 -18 -10 -22 -10 -11
0 -20 19 -13 30 8 12 16 12 35 0z m335 -60 c-3 -5 -15 -10 -25 -10 -10 0 -22
5 -25 10 -4 6 7 10 25 10 18 0 29 -4 25 -10z m-65 -40 c0 -5 -2 -10 -4 -10 -3
0 -8 5 -11 10 -3 6 -1 10 4 10 6 0 11 -4 11 -10z m-285 -50 c3 -5 -3 -10 -14
-10 -12 0 -21 5 -21 10 0 6 6 10 14 10 8 0 18 -4 21 -10z m625 -126 c0 -8 -4
-14 -10 -14 -5 0 -10 9 -10 21 0 11 5 17 10 14 6 -3 10 -13 10 -21z m56 -11
c-11 -11 -19 6 -11 24 8 17 8 17 12 0 3 -10 2 -21 -1 -24z m484 -203 c0 -17
-7 -20 -40 -20 -33 0 -40 3 -40 20 0 17 7 20 40 20 33 0 40 -3 40 -20z m-200
-20 c0 -5 -9 -10 -20 -10 -11 0 -20 5 -20 10 0 6 9 10 20 10 11 0 20 -4 20
-10z m40 -30 c0 -5 -4 -10 -10 -10 -5 0 -10 5 -10 10 0 6 5 10 10 10 6 0 10
-4 10 -10z m-34 -47 c-10 -10 -19 5 -10 18 6 11 8 11 12 0 2 -7 1 -15 -2 -18z"/>
<path d="M3417 2403 c-13 -12 -7 -72 9 -87 18 -18 34 -21 34 -5 0 5 4 8 9 5 5
-3 12 5 15 19 11 44 -40 96 -67 68z"/>
<path d="M1070 10200 c0 -36 3 -40 25 -40 15 0 25 -6 25 -14 0 -8 7 -17 16
-20 28 -11 37 -7 23 10 -10 13 -10 17 2 25 11 8 9 14 -13 32 -16 13 -28 28
-28 35 0 7 -11 12 -25 12 -22 0 -25 -4 -25 -40z"/>
<path d="M800 9960 c0 -19 3 -21 12 -12 9 9 9 15 0 24 -9 9 -12 7 -12 -12z"/>
<path d="M864 9969 c-3 -6 -1 -16 5 -22 8 -8 11 -5 11 11 0 24 -5 28 -16 11z"/>
<path d="M825 9930 c-3 -5 3 -10 15 -10 12 0 18 5 15 10 -3 6 -10 10 -15 10
-5 0 -12 -4 -15 -10z"/>
<path d="M750 9743 c0 -10 5 -25 10 -33 7 -11 10 -7 10 18 0 17 -4 32 -10 32
-5 0 -10 -8 -10 -17z"/>
<path d="M820 9190 c0 -5 5 -10 10 -10 6 0 10 5 10 10 0 6 -4 10 -10 10 -5 0
-10 -4 -10 -10z"/>
<path d="M930 8940 c-19 -11 -31 -19 -26 -20 6 0 1 -6 -9 -14 -11 -8 -23 -12
-27 -10 -5 3 -8 1 -8 -4 0 -4 -23 -19 -51 -31 -27 -13 -49 -25 -47 -26 2 -2
28 4 58 12 30 9 67 16 82 17 14 1 26 6 25 11 -1 6 5 10 13 10 8 0 20 4 27 8
13 8 43 -1 43 -14 0 -5 6 -9 13 -9 18 0 127 -56 121 -63 -9 -9 35 -29 48 -21
7 4 8 3 4 -4 -4 -7 7 -24 26 -41 18 -16 44 -50 58 -76 14 -26 44 -67 68 -92
24 -25 41 -52 38 -59 -3 -7 -1 -16 3 -19 15 -9 19 44 5 56 -8 6 -14 16 -14 22
0 9 -33 84 -78 176 -20 40 -56 68 -142 111 -36 18 -88 48 -116 66 -59 39 -67
40 -114 14z m287 -162 c-3 -8 -6 -5 -6 6 -1 11 2 17 5 13 3 -3 4 -12 1 -19z
m39 -7 c-4 -5 -2 -20 3 -33 7 -17 10 -18 10 -5 1 9 6 17 11 17 7 0 7 -6 0 -20
-7 -14 -7 -20 0 -20 5 0 10 -5 10 -12 0 -6 -9 -3 -20 7 -11 10 -20 24 -20 31
0 7 -6 15 -12 17 -10 4 -9 8 2 16 19 13 23 14 16 2z"/>
<path d="M840 8929 c0 -5 5 -7 10 -4 6 3 10 8 10 11 0 2 -4 4 -10 4 -5 0 -10
-5 -10 -11z"/>
<path d="M682 8854 c-14 -16 -5 -18 17 -5 7 5 9 11 5 14 -5 3 -15 -1 -22 -9z"/>
<path d="M714 8816 c-25 -11 -37 -27 -54 -73 -12 -32 -23 -70 -24 -85 0 -14
-5 -24 -10 -21 -4 3 -5 -5 -1 -18 5 -18 4 -20 -4 -9 -5 8 -11 12 -13 10 -71
-96 -121 -191 -68 -130 11 13 20 18 20 12 0 -6 -4 -14 -10 -17 -5 -3 -10 -16
-9 -28 0 -12 3 -16 6 -9 8 20 23 14 20 -9 -1 -12 4 -24 11 -26 6 -3 12 2 12
11 0 8 5 18 10 21 6 4 10 -5 8 -23 -1 -21 -6 -28 -16 -24 -10 3 -7 -9 9 -39
12 -24 24 -38 27 -31 2 7 -2 20 -10 29 -11 15 -11 16 4 10 9 -3 19 -1 22 6 2
7 3 -1 2 -18 -2 -16 -1 -22 1 -12 4 15 7 16 20 5 15 -12 15 -11 4 10 -7 13
-10 26 -7 29 3 3 -6 23 -20 44 -27 44 -29 57 -10 82 8 10 12 26 9 35 -2 9 3
26 12 37 16 20 16 20 6 -2 -16 -31 -13 -42 3 -14 12 22 12 28 -3 50 -9 15 -11
22 -3 17 8 -5 14 2 18 24 4 17 11 33 15 36 5 3 9 10 9 15 0 6 -3 8 -7 6 -5 -3
-9 6 -10 20 -1 19 1 22 8 12 6 -10 9 -7 9 11 0 20 2 22 10 10 8 -11 9 -7 4 14
-5 19 -3 27 3 23 6 -4 16 0 23 8 15 18 14 18 -26 1z m-65 -409 c8 -10 7 -14
-4 -14 -8 0 -15 6 -15 14 0 7 2 13 4 13 2 0 9 -6 15 -13z"/>
<path d="M883 8759 c-97 -50 -163 -99 -133 -99 13 0 13 -1 0 -10 -11 -7 -8 -8
12 -6 15 1 44 15 66 29 21 15 46 27 56 27 9 0 15 4 12 9 -3 5 1 11 8 14 8 3
17 1 19 -6 3 -9 8 -9 18 1 13 12 38 18 26 5 -5 -4 77 -40 101 -43 1 0 2 9 2
20 0 22 15 27 26 9 4 -8 9 -7 15 2 10 17 -39 72 -58 65 -7 -3 -18 1 -25 7 -28
28 -48 25 -145 -24z m182 -9 c3 -6 -1 -7 -9 -4 -18 7 -21 14 -7 14 6 0 13 -4
16 -10z m-279 -79 c0 -11 -5 -17 -13 -14 -17 6 -17 20 0 26 6 3 12 6 12 6 1 1
1 -7 1 -18z"/>
<path d="M571 8754 c0 -11 3 -14 6 -6 3 7 2 16 -1 19 -3 4 -6 -2 -5 -13z"/>
<path d="M1116 8693 c-6 -14 -5 -15 5 -6 7 7 10 15 7 18 -3 3 -9 -2 -12 -12z"/>
<path d="M1150 8701 c0 -5 -3 -18 -6 -28 -6 -16 -5 -16 9 2 19 23 21 35 7 35
-5 0 -10 -4 -10 -9z"/>
<path d="M1199 8678 c7 -9 9 -23 5 -30 -6 -10 -4 -11 7 0 11 10 10 15 -6 30
-17 15 -18 15 -6 0z"/>
<path d="M830 8640 c-9 -6 -10 -10 -3 -10 6 0 15 5 18 10 8 12 4 12 -15 0z"/>
<path d="M928 8631 c-48 -25 -78 -45 -78 -52 0 -3 19 -6 43 -6 23 0 34 2 25 5
-10 2 -18 7 -18 12 0 4 15 3 34 -2 42 -13 77 -5 93 21 11 17 8 20 -28 29 -31
8 -45 7 -71 -7z m55 -38 c-7 -2 -19 -2 -25 0 -7 3 -2 5 12 5 14 0 19 -2 13 -5z"/>
<path d="M675 8631 c-3 -5 -2 -12 3 -15 5 -3 9 1 9 9 0 17 -3 19 -12 6z"/>
<path d="M802 8610 c0 -14 2 -19 5 -12 2 6 2 18 0 25 -3 6 -5 1 -5 -13z"/>
<path d="M1421 8615 c0 -5 8 -26 19 -45 11 -19 19 -30 19 -25 0 6 -8 26 -19
45 -11 19 -19 31 -19 25z"/>
<path d="M1058 8583 c-10 -2 -18 -9 -18 -14 0 -13 13 -11 36 6 19 14 14 17
-18 8z"/>
<path d="M3002 8545 c-3 -46 36 -85 84 -85 18 0 39 -3 48 -6 14 -5 14 -2 5 26
-12 33 -91 99 -119 100 -11 0 -17 -11 -18 -35z"/>
<path d="M685 8559 c-4 -6 -5 -12 -2 -15 2 -3 7 2 10 11 7 17 1 20 -8 4z"/>
<path d="M976 8558 c5 -8 -5 -10 -37 -6 -24 3 -38 4 -31 1 10 -4 10 -8 1 -19
-8 -9 -8 -14 -1 -14 6 0 14 5 18 11 4 7 24 9 55 5 53 -7 57 -5 33 18 -18 18
-49 22 -38 4z"/>
<path d="M7140 8533 c14 -9 28 -22 32 -27 5 -8 8 -7 8 1 0 13 -38 43 -54 43
-6 0 1 -8 14 -17z"/>
<path d="M1087 8533 c-6 -10 -10 -48 -8 -85 2 -49 51 -32 51 18 0 8 -7 14 -15
14 -9 0 -12 6 -9 15 4 8 10 12 15 9 5 -3 9 3 9 12 0 10 -3 14 -7 11 -3 -4 -12
-2 -19 4 -7 5 -14 6 -17 2z"/>
<path d="M1171 8524 c0 -11 3 -14 6 -6 3 7 2 16 -1 19 -3 4 -6 -2 -5 -13z"/>
<path d="M1000 8511 c0 -6 4 -12 9 -15 5 -3 7 -16 5 -29 -4 -20 -4 -20 5 -2 5
12 5 27 -1 38 -10 19 -18 22 -18 8z"/>
<path d="M662 8476 c-1 -24 9 -50 31 -83 18 -27 38 -61 46 -76 8 -15 18 -27
23 -27 12 0 10 48 -4 56 -8 5 -9 2 -5 -9 3 -10 3 -17 -1 -17 -5 0 -14 16 -22
35 -8 19 -17 35 -22 35 -4 0 -3 12 2 26 6 14 10 31 9 37 0 7 -7 -4 -14 -23
l-14 -35 5 50 c5 49 5 49 -11 25 -12 -19 -15 -21 -11 -5 3 11 2 26 -3 33 -5 8
-8 0 -9 -22z"/>
<path d="M937 8504 c-8 -8 11 -34 24 -34 5 0 9 7 9 16 0 8 -4 13 -9 10 -5 -4
-11 -1 -13 5 -2 5 -7 7 -11 3z"/>
<path d="M910 8474 c0 -5 14 -22 31 -39 25 -24 32 -27 39 -15 7 11 3 17 -13
23 -12 4 -30 15 -39 24 -10 9 -18 12 -18 7z"/>
<path d="M1272 8435 c0 -16 2 -22 5 -12 2 9 2 23 0 30 -3 6 -5 -1 -5 -18z"/>
<path d="M4966 8433 c-3 -4 6 -13 21 -20 23 -11 24 -12 4 -7 l-24 6 25 -27
c14 -14 33 -28 44 -29 11 -2 18 -10 16 -19 -4 -22 13 -30 28 -12 10 12 3 23
-39 65 -50 50 -61 56 -75 43z"/>
<path d="M691 8310 c21 -34 52 -113 40 -106 -5 3 -8 -5 -7 -18 0 -13 4 -22 7
-20 4 2 23 -7 43 -21 20 -14 45 -25 54 -25 9 0 26 -7 36 -15 17 -13 17 -15 3
-21 -12 -4 -1 -16 44 -47 l61 -40 34 18 c18 10 46 31 61 46 16 16 32 29 36 29
5 0 16 7 25 16 15 15 13 16 -19 10 -32 -7 -33 -6 -15 9 11 8 17 15 13 15 -14
0 -86 -42 -102 -60 -21 -23 -47 -27 -39 -6 3 8 -4 16 -18 19 -13 4 -33 15 -45
27 -12 11 -24 20 -27 20 -3 0 -35 21 -71 46 -48 34 -72 58 -87 90 -11 24 -25
47 -32 51 -6 4 -4 -4 5 -17z"/>
<path d="M1177 8301 c-43 -40 -88 -78 -112 -97 -19 -15 -19 -15 3 -4 13 7 26
9 28 7 3 -3 -9 -11 -25 -18 -17 -8 -31 -19 -31 -26 0 -6 -10 -13 -22 -15 -13
-2 -18 -6 -13 -9 6 -4 43 12 84 35 72 41 113 82 116 115 0 9 4 22 9 29 12 21
-3 13 -37 -17z"/>
<path d="M790 8309 c0 -5 5 -7 10 -4 6 3 10 2 10 -4 0 -5 -7 -14 -16 -19 -9
-5 -14 -14 -10 -20 12 -20 181 -131 200 -132 12 0 -50 45 -91 67 -40 20 -41
30 -8 43 24 9 40 6 100 -22 13 -6 30 -5 45 1 20 9 21 10 5 9 -34 -3 -168 43
-202 68 -35 27 -43 29 -43 13z m40 -28 c0 -5 -7 -11 -14 -14 -10 -4 -13 -1 -9
9 6 15 23 19 23 5z m35 -20 c19 -8 19 -8 -2 -19 -28 -16 -58 -5 -42 14 13 16
16 16 44 5z"/>
<path d="M1303 8303 c-4 -10 -9 -20 -12 -23 -14 -12 -53 -72 -42 -66 6 4 11 3
11 -3 0 -5 -6 -11 -12 -14 -9 -3 -10 -8 -3 -15 15 -17 64 26 71 61 3 18 1 26
-6 22 -5 -3 -10 -13 -10 -22 0 -9 -3 -13 -6 -10 -10 9 17 68 27 61 5 -3 6 2 3
10 -8 21 -13 20 -21 -1z"/>
<path d="M660 8300 c0 -5 5 -10 10 -10 6 0 10 5 10 10 0 6 -4 10 -10 10 -5 0
-10 -4 -10 -10z"/>
<path d="M640 8278 c0 -9 5 -20 10 -23 13 -8 13 5 0 25 -8 13 -10 13 -10 -2z"/>
<path d="M680 8256 c0 -8 5 -18 10 -21 6 -3 10 1 10 9 0 8 -4 18 -10 21 -5 3
-10 -1 -10 -9z"/>
<path d="M4170 8231 c-5 -11 -10 -52 -10 -92 0 -69 -1 -71 -18 -56 -10 10 -21
14 -25 11 -4 -4 -22 -8 -41 -10 -49 -4 -108 -35 -123 -64 -18 -36 -16 -117 4
-151 10 -16 21 -29 25 -29 4 0 8 -7 8 -15 0 -9 19 -36 42 -60 22 -25 34 -43
25 -39 -12 4 -17 1 -17 -11 0 -9 -5 -13 -11 -10 -6 4 -8 13 -5 21 3 8 1 14 -4
14 -6 0 -10 -5 -10 -11 0 -5 -5 -7 -10 -4 -6 4 -8 11 -5 16 7 10 -22 25 -31
16 -9 -9 86 -98 98 -91 7 5 8 3 3 -6 -5 -8 4 -23 26 -42 70 -61 168 -159 360
-363 191 -203 269 -292 269 -307 0 -4 -16 -15 -36 -23 -36 -15 -38 -14 -71 11
-55 42 -202 114 -231 113 -25 0 -24 -2 13 -19 22 -10 69 -31 105 -46 73 -30
120 -62 120 -79 0 -7 -152 -88 -337 -182 l-338 -169 -43 42 c-24 23 -94 69
-155 102 -202 108 -291 157 -332 183 -22 15 -150 79 -285 143 -135 65 -287
139 -337 164 l-93 47 -1 60 c-1 80 -5 125 -14 153 -4 12 -4 22 0 22 4 0 84
-38 176 -84 93 -47 169 -83 169 -80 0 2 -13 10 -30 19 -16 8 -46 29 -65 46
-33 29 -35 35 -35 93 0 99 -4 105 -53 94 -23 -5 -50 -13 -59 -19 -10 -5 -24
-6 -32 -3 -8 3 -17 1 -20 -5 -4 -6 -13 -8 -20 -5 -8 3 -17 1 -21 -5 -3 -6 -18
-11 -33 -12 l-27 -1 25 -7 c24 -7 24 -7 -7 -14 -18 -3 -42 -16 -53 -27 -11
-11 -24 -20 -29 -20 -11 0 -61 -65 -61 -79 0 -6 -4 -11 -9 -11 -5 0 -7 -9 -4
-20 4 -14 -2 -23 -21 -31 -14 -7 -26 -16 -26 -21 0 -5 -8 -8 -17 -6 -10 2 -30
-7 -44 -20 -15 -13 -49 -35 -75 -49 -27 -14 -57 -33 -67 -42 -45 -40 -77 -76
-77 -88 0 -6 -8 -17 -17 -22 -11 -6 -13 -11 -5 -11 9 0 8 -6 -3 -24 -19 -28
-33 -136 -18 -136 5 0 15 -25 22 -55 7 -30 19 -69 28 -86 9 -17 16 -50 17 -73
1 -23 6 -47 10 -55 13 -20 20 -131 9 -131 -17 0 -27 -95 -28 -274 -1 -146 -4
-170 -18 -178 -9 -5 -17 -14 -17 -21 0 -7 4 -6 10 3 8 12 10 12 16 -3 3 -9 1
-24 -6 -32 -6 -8 -9 -24 -5 -37 5 -18 4 -20 -4 -8 -8 11 -11 -6 -11 -65 0 -44
-3 -96 -6 -116 -5 -29 -2 -41 14 -57 13 -13 17 -24 11 -33 -5 -8 -9 -24 -9
-36 0 -13 -4 -23 -10 -23 -5 0 -10 -17 -10 -37 0 -32 -6 -42 -34 -61 -31 -21
-55 -72 -35 -72 5 0 6 -7 3 -15 -4 -8 -10 -12 -15 -9 -10 6 -11 -4 -11 -81 0
-53 21 -114 32 -94 4 6 10 -27 14 -73 11 -141 16 -166 36 -171 11 -3 19 -18
23 -44 4 -22 18 -52 32 -67 14 -15 23 -32 20 -37 -4 -5 2 -12 12 -16 22 -9 43
-28 43 -42 0 -5 10 -11 23 -13 15 -2 25 -13 32 -35 5 -18 14 -33 20 -33 5 0
24 -14 42 -30 18 -17 43 -30 56 -30 13 0 39 -13 57 -30 18 -16 41 -30 51 -30
10 0 31 -11 47 -25 16 -13 40 -24 53 -23 51 3 78 -2 74 -14 -5 -14 38 -38 68
-38 10 0 21 -9 24 -19 4 -17 8 -18 31 -6 39 18 94 37 116 39 21 1 24 -10 27
-89 3 -74 8 -88 30 -82 10 3 21 1 24 -3 3 -4 14 -6 25 -3 11 3 27 0 35 -7 7
-6 36 -10 62 -9 27 1 54 0 60 -4 6 -4 18 -4 27 -1 9 3 28 -1 42 -11 18 -12 29
-14 37 -6 7 7 14 6 22 -6 9 -12 16 -13 30 -6 18 10 65 -4 65 -20 0 -4 9 -3 20
3 12 6 27 7 35 2 8 -4 81 -2 163 4 128 11 154 16 203 41 30 15 56 31 57 36 6
22 41 42 72 41 20 -1 39 4 45 12 6 9 29 15 60 16 28 0 53 6 57 12 5 7 8 7 8
-3 0 -10 4 -11 13 -3 6 6 66 12 132 15 81 3 130 9 150 20 17 8 56 21 87 28 32
6 55 16 52 21 -3 4 6 8 20 8 14 0 26 -5 26 -10 0 -6 11 -3 24 5 28 18 116 20
440 9 130 -4 196 -10 210 -19 12 -7 51 -22 87 -33 36 -11 106 -41 155 -65 62
-32 111 -49 161 -56 39 -6 83 -15 97 -21 17 -6 26 -6 26 0 0 6 11 3 25 -6 16
-10 34 -14 54 -9 16 3 38 2 48 -3 26 -14 217 12 283 38 30 12 60 23 65 24 6 1
26 7 45 13 19 6 57 14 83 18 27 4 56 14 66 24 9 9 35 26 58 38 68 35 88 48 94
57 4 5 29 10 55 13 29 2 52 10 57 18 4 8 19 15 32 15 13 0 26 4 29 8 3 5 34
23 68 41 35 17 70 36 78 41 8 5 38 20 65 33 28 14 73 36 100 50 28 15 60 27
71 27 12 0 27 7 34 15 7 8 19 15 27 15 7 0 16 7 19 15 4 8 12 15 19 15 8 0 20
7 29 15 8 9 18 16 21 15 13 0 75 35 75 42 0 5 5 6 10 3 6 -3 10 1 10 9 0 9 6
16 14 16 8 0 21 6 28 13 26 27 67 48 85 45 12 -2 18 3 16 15 -1 13 19 31 60
57 83 51 117 79 117 95 0 8 17 19 39 26 l38 11 5 77 c3 42 2 137 -1 212 l-6
137 -40 -35 c-36 -31 -37 -34 -15 -30 14 2 19 2 13 0 -7 -3 -13 -13 -13 -23 0
-11 -8 -23 -17 -29 -17 -9 -17 -10 0 -16 23 -10 22 -25 -3 -25 -11 0 -21 -6
-22 -12 -1 -16 -3 -24 -13 -72 -9 -46 11 -144 35 -164 8 -8 9 -11 3 -7 -7 3
-21 1 -30 -5 -17 -11 -17 -11 0 -6 56 18 -14 -21 -265 -144 -309 -152 -591
-297 -736 -378 -50 -29 -96 -52 -100 -52 -5 0 -8 27 -8 59 0 33 4 54 8 48 9
-13 10 190 2 239 -3 17 -11 31 -17 31 -7 0 -28 1 -47 2 l-35 2 46 13 c25 6 81
33 125 58 138 79 203 113 474 248 269 133 471 234 569 284 l53 27 -33 17 c-25
13 -34 24 -34 42 0 22 8 27 56 43 l56 17 -1 185 c-1 102 -2 185 -3 185 -16 0
-749 -372 -766 -389 -18 -18 -3 -13 44 14 56 32 74 32 29 1 -19 -13 -38 -22
-42 -19 -5 2 -8 -1 -8 -6 0 -16 11 -14 48 9 22 13 32 16 31 8 -4 -30 2 -58 12
-58 6 0 8 10 5 23 -3 12 -3 16 0 10 3 -7 14 -13 25 -13 10 0 19 -4 19 -9 0 -5
12 -14 28 -20 33 -14 82 -56 82 -71 0 -5 5 -10 10 -10 6 0 10 7 10 16 0 9 6
14 13 11 6 -2 11 -10 10 -16 -2 -6 2 -11 7 -11 6 0 10 9 10 20 0 23 12 25 42
9 16 -9 19 -8 16 2 -3 8 -15 16 -29 20 -19 6 -15 7 18 8 34 1 41 -2 37 -14 -8
-19 7 -19 54 1 109 47 112 39 5 -16 -43 -21 -94 -48 -113 -59 -19 -11 -170
-87 -335 -169 -165 -82 -318 -160 -340 -172 -53 -30 -206 -110 -211 -110 -2 0
-4 5 -4 11 0 6 18 18 39 26 38 15 40 18 47 71 4 30 4 106 1 170 -5 105 -7 117
-28 133 l-23 17 40 19 c21 11 100 51 174 90 314 164 959 483 989 489 38 8 41
24 3 24 -31 0 -72 25 -72 44 0 22 33 44 84 58 l49 13 -7 74 c-3 41 -6 125 -6
187 0 98 -2 113 -15 108 -12 -5 -13 -10 -5 -19 7 -8 8 -28 5 -47 -5 -28 -15
-37 -57 -56 -40 -19 -54 -21 -76 -12 -21 8 -22 9 -4 6 12 -2 22 -1 22 4 0 4
-10 11 -22 15 -20 6 -21 8 -5 12 10 3 27 -3 38 -13 11 -10 19 -12 19 -5 0 6
-7 14 -15 17 -21 8 -19 17 8 33 17 10 19 11 10 0 -20 -20 -16 -29 12 -29 18 0
25 5 25 20 0 11 -6 20 -12 20 -7 1 -2 7 12 15 14 8 22 14 17 15 -21 1 -526
-263 -520 -273 3 -6 1 -7 -6 -3 -6 4 -32 -2 -57 -15 -35 -16 -43 -24 -32 -31
9 -7 7 -8 -7 -3 -13 4 -53 -11 -123 -47 -57 -29 -99 -54 -93 -56 6 -2 32 8 57
22 26 14 49 26 53 26 3 0 -2 -5 -13 -11 -15 -9 -16 -13 -5 -21 10 -6 7 -7 -10
-3 -13 4 -21 3 -18 -2 6 -9 -1 -11 -62 -17 -35 -3 -270 -115 -271 -129 0 -4
13 -1 29 8 17 8 38 12 48 9 14 -5 15 -4 4 4 -11 8 -1 14 42 27 35 10 55 21 51
27 -5 7 1 9 17 5 13 -3 31 -2 39 3 10 6 20 4 31 -5 8 -8 28 -16 42 -17 42 -4
32 -16 -17 -19 -24 -2 -42 -1 -40 2 2 3 -14 5 -34 4 -35 -1 -37 -3 -37 -33 -1
-36 4 -38 45 -17 30 15 30 15 30 -11 0 -25 -2 -26 -52 -22 -31 2 -53 -1 -53
-7 0 -5 6 -9 12 -9 7 1 10 -2 7 -7 -11 -19 23 -18 76 1 30 11 63 20 72 20 10
0 18 5 18 11 0 5 5 7 10 4 16 -10 -16 -35 -44 -35 -42 0 -115 -42 -115 -65 0
-17 1 -18 12 -5 14 18 71 47 110 56 24 5 27 3 27 -20 0 -21 -5 -26 -25 -26
-20 0 -25 -5 -25 -24 0 -14 -7 -31 -15 -40 -18 -17 -5 -29 22 -20 23 7 -272
-139 -347 -172 l-55 -25 27 23 c42 36 48 60 48 182 0 116 12 152 25 74 6 -35
9 -39 18 -23 7 14 7 20 -1 23 -7 2 -12 19 -12 37 0 35 -31 75 -57 75 -29 0 -9
20 55 56 112 63 225 124 260 140 62 28 747 372 801 402 l53 30 -28 13 c-20 10
-30 23 -32 41 l-3 28 -52 -33 c-29 -18 -61 -36 -72 -40 -20 -7 -20 -7 -1 8 11
8 24 15 30 15 5 0 7 2 4 5 -3 3 -17 1 -31 -4 -19 -7 -28 -7 -33 2 -4 7 -4 9 0
5 4 -3 27 2 51 12 24 10 46 16 49 13 3 -4 6 -1 6 6 0 6 -7 14 -16 18 -8 3 -13
12 -10 19 4 11 -5 14 -35 14 -37 0 -40 2 -35 23 3 12 3 16 0 10 -4 -9 -28 -13
-68 -13 -34 0 -67 -5 -73 -11 -6 -6 -31 -10 -56 -8 -27 3 -45 0 -44 -6 1 -5
-14 -10 -34 -10 -22 0 -36 -5 -36 -12 0 -7 6 -13 14 -13 7 0 13 -4 13 -10 0
-5 -9 -10 -20 -10 -11 0 -20 -4 -20 -10 0 -15 -78 -12 -83 3 -3 9 -7 9 -20 -2
-10 -7 -32 -17 -50 -20 -21 -5 -36 -16 -45 -34 -13 -26 -13 -26 -46 -10 -26
12 -37 13 -52 4 -18 -11 -18 -12 2 -6 12 3 29 3 38 -1 20 -8 21 -44 1 -44 -8
0 -29 -9 -47 -20 -29 -18 -30 -20 -10 -20 12 0 22 -4 22 -10 0 -5 -25 -10 -55
-10 -48 0 -55 -2 -55 -20 0 -17 -7 -20 -40 -20 -22 0 -40 -4 -40 -10 0 -19
-17 -10 -29 16 -9 20 -17 25 -36 22 -15 -3 -22 -1 -18 5 4 6 0 8 -10 4 -9 -3
-17 -1 -19 5 -3 7 -10 8 -23 1 -11 -5 -31 -7 -45 -4 -23 7 -23 7 15 27 22 11
191 99 375 195 184 97 387 202 450 234 63 32 165 86 227 121 61 35 125 67 142
70 l31 7 0 -85 c0 -150 -11 -267 -25 -261 -14 5 -24 -7 -30 -37 -6 -30 26 -22
38 10 4 12 6 12 6 -2 1 -11 -17 -27 -46 -43 -47 -25 -47 -25 -13 -19 19 4 44
10 54 14 21 7 21 1 25 303 3 167 3 169 -21 185 -12 9 -32 25 -43 35 -30 28
-75 50 -75 36 0 -19 -44 -48 -72 -49 -35 0 -43 26 -35 113 5 49 4 55 -4 27 -5
-19 -8 -65 -7 -103 l1 -67 -49 -32 c-27 -17 -136 -74 -243 -126 -106 -52 -253
-126 -325 -165 -72 -39 -167 -89 -211 -112 -105 -55 -181 -97 -227 -123 -20
-11 -67 -33 -105 -48 -37 -15 -73 -31 -80 -36 -33 -26 -209 31 -325 104 -54
35 -120 68 -134 68 -4 0 -65 31 -134 70 -70 38 -139 72 -154 76 -14 3 -26 10
-26 14 0 5 29 34 64 65 36 32 67 69 71 84 4 14 32 51 64 81 32 30 98 100 146
155 109 123 164 175 185 175 9 0 21 5 28 12 7 7 12 8 12 3 0 -6 65 57 145 140
79 82 142 152 139 154 -2 3 -10 -1 -16 -7 -7 -7 -21 -12 -32 -12 -12 0 -30 -6
-42 -13 -46 -27 -222 -146 -235 -159 -29 -27 -182 -127 -233 -152 -46 -22 -56
-12 -56 55 l0 59 -39 -2 c-22 -2 -38 -5 -35 -7 2 -2 -34 -16 -79 -32 -45 -15
-85 -24 -89 -21 -12 13 -13 47 -1 45 9 -2 11 6 7 25 -5 25 -1 30 48 55 276
143 345 194 393 288 20 39 55 228 55 297 0 25 -50 4 -265 -108 -461 -241 -684
-257 -1180 -83 -111 39 -153 60 -356 176 -74 41 -113 47 -129 18z m1882 -88
c-16 -32 -41 -91 -56 -131 -45 -119 -81 -146 -283 -222 -269 -100 -284 -103
-528 -103 -237 0 -320 12 -496 76 -126 46 -184 76 -252 132 -48 39 -64 61
-106 148 -28 56 -53 113 -57 126 -6 24 -6 24 32 -5 264 -205 760 -343 1061
-294 182 30 530 178 646 276 34 29 63 53 65 53 1 1 -11 -25 -26 -56z m-1165
-570 c-2 -16 -2 -22 0 -15 3 6 11 12 18 12 7 0 16 -6 18 -12 4 -10 8 -9 16 2
14 21 20 11 22 -43 3 -50 -8 -75 -18 -39 -6 25 -21 29 -29 7 -9 -22 -26 -7
-19 16 4 13 2 19 -9 19 -17 0 -22 34 -10 64 10 25 16 19 11 -11z m53 23 c0 -3
-4 -8 -10 -11 -5 -3 -10 -1 -10 4 0 6 5 11 10 11 6 0 10 -2 10 -4z m870 -71
c0 -3 -6 -21 -14 -40 -13 -31 -33 -140 -38 -209 -2 -20 -15 -39 -44 -62 -22
-19 -45 -34 -51 -34 -19 0 -54 -48 -75 -101 -29 -75 -40 -230 -44 -628 -2
-183 -5 -336 -9 -339 -3 -3 -6 75 -6 174 -1 98 -3 171 -6 162 -5 -19 -53 -26
-53 -8 0 6 -6 10 -12 10 -7 0 -24 25 -38 55 -14 30 -29 55 -35 55 -5 0 -11 17
-13 37 -1 20 -6 39 -11 43 -4 3 -11 23 -15 45 -5 29 -4 36 3 25 6 -8 11 -24
12 -35 1 -14 4 -10 11 13 6 17 15 32 19 32 5 0 9 33 9 74 0 66 -7 96 -40 171
-19 44 -19 83 0 120 10 20 16 43 13 51 -3 8 -2 26 1 40 5 20 12 25 26 21 17
-4 18 -2 10 14 -14 25 -86 45 -106 28 -11 -9 -12 -15 -2 -26 10 -13 9 -15 -7
-11 -12 2 -19 10 -17 21 2 11 -2 15 -11 11 -9 -3 -13 -13 -10 -25 4 -15 0 -19
-23 -20 -92 -4 -155 -17 -174 -34 -16 -15 -18 -40 -19 -238 -1 -308 -12 -514
-24 -464 -5 20 -13 37 -18 37 -5 0 -9 8 -10 18 0 15 -1 15 -8 -2 -5 -14 -10
-16 -15 -8 -4 7 -5 15 -3 20 3 4 -6 7 -19 7 -13 0 -24 -3 -24 -7 0 -5 -9 1
-20 12 -18 18 -20 33 -20 137 0 87 -4 129 -17 162 -16 41 -18 43 -23 21 -9
-38 -28 51 -39 185 -6 80 -16 128 -35 174 -16 39 -26 84 -26 113 0 32 -4 48
-12 48 -10 0 -10 2 0 8 8 6 -12 17 -58 33 -57 19 -76 31 -92 57 -11 18 -18 35
-16 38 3 2 48 -16 101 -41 106 -50 322 -116 440 -135 105 -17 182 -8 312 35
111 38 352 139 370 156 10 10 25 12 25 4z m-2973 -522 c191 -97 470 -237 618
-312 l270 -136 3 -204 c2 -180 1 -202 -13 -191 -12 10 -15 47 -17 197 l-3 184
-35 19 c-19 10 -143 72 -275 137 -317 157 -877 443 -892 455 -12 10 -18 28 -9
28 3 0 161 -80 353 -177z m2500 -35 c-3 -8 -6 -5 -6 6 -1 11 2 17 5 13 3 -3 4
-12 1 -19z m-470 -230 c-2 -13 -4 -3 -4 22 0 25 2 35 4 23 2 -13 2 -33 0 -45z
m-148 26 c-7 -9 -34 -31 -60 -48 -29 -20 -45 -37 -43 -48 1 -10 -2 -18 -8 -18
-6 0 -8 -11 -4 -25 4 -14 1 -35 -5 -47 -21 -39 -43 -248 -26 -248 6 0 2 -7 -9
-15 -14 -11 -15 -14 -3 -9 10 3 20 1 24 -5 3 -6 1 -11 -6 -11 -7 0 -60 -29
-118 -64 -58 -35 -173 -98 -256 -141 -82 -42 -157 -84 -166 -91 -8 -8 -19 -14
-22 -14 -9 0 -9 137 0 303 l6 128 101 55 c331 182 600 323 605 318 2 -2 -2
-11 -10 -20z m1216 -166 c77 -40 187 -94 245 -121 58 -27 120 -56 138 -65 l33
-17 3 -218 c2 -157 0 -217 -8 -214 -14 5 -28 223 -21 332 l5 80 -208 102
c-199 98 -430 228 -462 261 -8 8 19 -4 60 -27 41 -23 138 -74 215 -113z m1600
92 c3 -5 1 -10 -4 -10 -6 0 -11 5 -11 10 0 6 2 10 4 10 3 0 8 -4 11 -10z
m-4865 -132 c80 -39 294 -144 476 -233 419 -207 582 -285 594 -285 16 0 12
-17 -5 -24 -14 -5 -16 -31 -15 -178 1 -95 6 -181 11 -190 11 -21 6 -22 -23 -7
-20 11 -20 17 -17 193 l4 181 -35 14 c-19 8 -134 66 -255 128 -259 133 -753
378 -842 418 -34 15 -70 36 -80 48 -18 20 -18 20 12 13 17 -4 95 -39 175 -78z
m2687 -5 c-2 -16 -4 -5 -4 22 0 28 2 40 4 28 2 -13 2 -35 0 -50z m2013 -8 c0
-2 -13 -11 -30 -20 -38 -19 -40 -11 -2 9 31 17 32 18 32 11z m-660 -45 c8 -5
11 -10 5 -10 -5 0 -17 5 -25 10 -8 5 -10 10 -5 10 6 0 17 -5 25 -10z m930 -10
c-8 -5 -19 -10 -25 -10 -5 0 -3 5 5 10 8 5 20 10 25 10 6 0 3 -5 -5 -10z
m-2283 -37 c-3 -10 -5 -4 -5 12 0 17 2 24 5 18 2 -7 2 -21 0 -30z m1523 17 c0
-5 -4 -10 -9 -10 -6 0 -13 5 -16 10 -3 6 1 10 9 10 9 0 16 -4 16 -10z m706
-25 c10 -8 14 -15 7 -15 -6 0 -15 5 -18 11 -4 6 -14 8 -22 5 -8 -3 -11 -1 -8
4 8 14 18 13 41 -5z m-601 -65 c-3 -5 -16 -10 -28 -9 -20 1 -20 2 3 9 14 4 26
8 28 9 2 1 0 -3 -3 -9z m45 -4 c0 -2 -7 -7 -16 -10 -8 -3 -12 -2 -9 4 6 10 25
14 25 6z m-40 -20 c0 -2 -7 -7 -16 -10 -8 -3 -12 -2 -9 4 6 10 25 14 25 6z
m375 -16 c3 -6 -1 -7 -9 -4 -18 7 -21 14 -7 14 6 0 13 -4 16 -10z m-438 -16
c-3 -3 -12 -4 -19 -1 -8 3 -5 6 6 6 11 1 17 -2 13 -5z m-37 -14 c0 -5 -4 -10
-9 -10 -6 0 -13 5 -16 10 -3 6 1 10 9 10 9 0 16 -4 16 -10z m-90 -44 c0 -2 -7
-7 -16 -10 -8 -3 -12 -2 -9 4 6 10 25 14 25 6z m-2087 -54 c-11 -10 -37 -29
-56 -44 -27 -21 -34 -33 -31 -55 5 -43 4 -254 -1 -293 -3 -19 -12 -40 -21 -47
-22 -16 -581 -303 -591 -303 -4 0 -7 83 -5 185 l3 185 -23 0 c-15 0 17 23 88
64 108 61 152 85 388 211 184 98 319 151 249 97z m314 -9 c-3 -10 -5 -4 -5 12
0 17 2 24 5 18 2 -7 2 -21 0 -30z m1643 -3 c0 -5 -5 -10 -11 -10 -5 0 -7 5 -4
10 3 6 8 10 11 10 2 0 4 -4 4 -10z m-1009 -24 c95 -36 228 -98 274 -127 22
-14 93 -47 159 -74 65 -27 123 -54 130 -60 20 -19 85 -57 112 -64 l25 -6 2
-203 c2 -184 0 -202 -15 -202 -9 0 -20 5 -23 10 -4 6 -6 92 -5 190 0 127 -3
180 -10 180 -23 0 -553 269 -658 333 -88 54 -86 59 9 23z m1283 -41 c-10 -8
-23 -14 -29 -14 -5 0 -1 6 9 14 11 8 24 15 30 15 5 0 1 -7 -10 -15z m-4065
-200 c215 -107 394 -195 396 -195 2 0 105 -50 229 -111 l226 -110 1 -147 c0
-81 4 -178 8 -217 5 -38 6 -72 4 -74 -2 -3 -18 6 -36 19 -17 14 -70 45 -117
71 -47 25 -152 83 -235 128 -82 45 -205 110 -272 143 -67 34 -119 66 -116 72
3 5 1 6 -5 2 -11 -7 -286 127 -298 145 -4 8 0 7 15 0 12 -7 27 -9 33 -5 7 4 8
3 4 -4 -5 -8 0 -12 13 -12 11 0 23 5 26 10 3 6 11 10 17 10 7 0 6 -5 -1 -14
-8 -10 -9 -16 -1 -21 5 -3 10 -1 10 4 0 18 56 12 79 -8 14 -12 46 -22 79 -26
31 -4 88 -16 127 -26 38 -10 84 -19 102 -19 18 0 33 -5 33 -11 0 -13 73 -2 78
12 2 5 12 9 22 9 10 0 25 9 32 19 18 25 127 34 112 9 -4 -7 -3 -8 4 -4 6 4 21
2 33 -5 18 -9 19 -13 8 -21 -10 -6 -7 -7 10 -3 13 4 21 3 18 -1 -3 -5 10 -10
28 -11 22 -1 -111 71 -429 232 -480 242 -627 322 -634 343 -2 6 -2 12 1 12 2
0 180 -88 396 -195z m4745 23 c-5 -8 0 -9 15 -5 13 3 20 3 17 0 -3 -3 2 -12
12 -20 15 -13 15 -13 -6 -3 -12 6 -33 8 -45 5 -17 -5 -19 -4 -7 4 13 10 13 11
0 11 -13 0 -13 1 0 10 20 13 23 12 14 -2z m-44 -18 c-12 -8 -12 -10 -1 -10 8
0 12 -2 9 -5 -3 -3 -13 -2 -22 1 -14 5 -15 9 -4 15 7 5 18 9 23 9 6 0 3 -5 -5
-10z m-65 -30 c-3 -5 -12 -10 -18 -10 -7 0 -6 4 3 10 19 12 23 12 15 0z m-445
-44 c0 -2 -7 -7 -16 -10 -8 -3 -12 -2 -9 4 6 10 25 14 25 6z m195 -86 c-3 -5
-11 -10 -16 -10 -6 0 -7 5 -4 10 3 6 11 10 16 10 6 0 7 -4 4 -10z m-2188 -82
c-2 -13 -4 -3 -4 22 0 25 2 35 4 23 2 -13 2 -33 0 -45z m-2537 14 c-7 -3 -19
3 -28 13 -16 15 -15 16 12 4 15 -7 23 -15 16 -17z m47 -8 c-3 -3 -12 -4 -19
-1 -8 3 -5 6 6 6 11 1 17 -2 13 -5z m5109 -29 c-3 -8 -16 -14 -28 -14 l-23 2
23 4 c14 3 22 12 23 26 0 12 3 16 6 9 3 -7 2 -19 -1 -27z m44 25 c0 -5 -5 -10
-11 -10 -5 0 -7 5 -4 10 3 6 8 10 11 10 2 0 4 -4 4 -10z m-2990 -14 c0 -6
-103 -70 -112 -71 -5 0 -8 -4 -9 -10 0 -5 -5 -16 -11 -22 -7 -9 -7 -13 2 -13
10 0 10 -3 0 -15 -10 -12 -10 -15 1 -16 8 0 9 -2 3 -5 -7 -3 -10 -43 -9 -118
2 -62 0 -117 -4 -123 -10 -16 -133 -80 -201 -106 -70 -26 -125 -53 -292 -141
-65 -34 -121 -56 -140 -56 -28 0 -30 1 -17 18 26 30 37 85 39 183 1 93 0 98
-25 117 -32 25 -31 29 3 37 16 3 67 28 115 55 104 58 495 243 569 270 51 18
88 25 88 16z m2853 -31 c-3 -8 -10 -15 -15 -15 -7 0 -6 5 1 13 6 8 7 18 3 22
-4 5 -2 5 5 1 7 -4 10 -13 6 -21z m-2524 -350 c-4 -22 -6 52 -6 165 l1 205 6
-165 c3 -91 2 -183 -1 -205z m641 308 c41 -19 156 -70 255 -113 99 -43 222
-98 274 -124 52 -25 99 -46 105 -46 8 0 11 -57 10 -178 l-1 -177 -27 3 c-27 3
-81 29 -279 137 -82 44 -104 61 -93 67 9 5 16 16 16 23 0 8 5 15 10 15 6 0 10
6 10 13 0 7 9 21 21 30 26 23 19 33 -11 17 -22 -12 -22 -11 -16 25 6 28 3 42
-10 56 -16 18 -16 19 7 19 l24 1 -25 14 c-24 15 -23 15 20 10 35 -3 41 -2 27
6 -11 6 -24 12 -30 13 -7 1 -22 8 -35 15 -13 7 -30 10 -38 7 -7 -3 -13 -1 -11
5 1 5 -45 35 -103 65 -92 49 -184 107 -215 137 -16 15 33 -2 115 -40z m1833
27 c20 0 20 0 1 -15 -26 -20 -29 -19 -30 13 -1 15 1 21 3 15 3 -7 14 -13 26
-13z m-4903 -112 c69 -34 166 -80 215 -103 84 -38 331 -167 708 -367 l158 -84
3 -211 c1 -146 -1 -210 -8 -206 -6 4 -24 16 -41 28 -58 43 -1125 595 -1172
607 -23 6 -23 8 -23 182 0 97 4 176 9 176 4 0 23 -10 42 -23 45 -30 149 -80
155 -75 2 3 -43 29 -100 59 -106 55 -158 99 -99 85 15 -4 84 -35 153 -68z
m3600 -28 c8 -5 11 -10 5 -10 -5 0 -17 5 -25 10 -8 5 -10 10 -5 10 6 0 17 -5
25 -10z m-4150 -205 c0 -8 -4 -15 -10 -15 -5 0 -10 7 -10 15 0 8 5 15 10 15 6
0 10 -7 10 -15z m3568 -239 c70 -27 150 -59 179 -73 58 -27 55 -19 68 -178 4
-38 8 -78 11 -87 4 -13 -20 -6 -103 33 -59 27 -133 63 -163 78 -49 26 -135 55
-281 96 -88 25 -216 29 -334 10 -110 -17 -347 -88 -485 -145 -84 -35 -95 -36
-86 -13 4 10 11 54 17 98 13 110 19 136 32 140 7 2 44 14 82 28 148 53 233 76
327 91 127 21 329 20 438 0 47 -9 102 -18 123 -20 l37 -4 2 88 2 87 3 -91 4
-91 127 -47z m-1274 -1 c-3 -8 -14 -17 -25 -20 -10 -4 -24 -15 -29 -25 -11
-20 -7 -193 5 -287 l7 -52 -70 -45 c-39 -25 -81 -50 -94 -55 -12 -5 -58 -25
-101 -45 -42 -20 -82 -37 -88 -39 -7 -1 -10 59 -9 182 1 165 -1 185 -17 197
-17 13 -17 13 0 14 10 0 39 16 65 35 55 43 160 96 257 130 82 28 107 31 99 10z
m1660 -80 c58 -19 143 -53 190 -75 46 -22 92 -40 100 -40 14 0 16 -23 16 -175
0 -96 0 -178 -1 -182 -1 -11 -31 -4 -49 11 -8 7 -31 18 -50 25 -71 26 -280
136 -277 146 2 5 18 12 36 16 17 4 35 10 39 14 4 5 -1 5 -11 2 -16 -6 -16 -4
3 23 12 16 27 33 34 37 21 13 29 78 11 93 -14 11 -14 14 1 24 21 16 11 23 -83
67 -40 18 -73 36 -73 41 0 11 -1 12 114 -27z"/>
<path d="M5418 7293 c7 -3 16 -2 19 1 4 3 -2 6 -13 5 -11 0 -14 -3 -6 -6z"/>
<path d="M4871 6844 c0 -11 3 -14 6 -6 3 7 2 16 -1 19 -3 4 -6 -2 -5 -13z"/>
<path d="M2945 5570 c3 -5 8 -10 11 -10 2 0 4 5 4 10 0 6 -5 10 -11 10 -5 0
-7 -4 -4 -10z"/>
<path d="M3616 5505 c16 -14 36 -25 44 -25 13 0 13 -1 0 -10 -10 -6 -11 -10
-2 -10 8 0 12 -20 13 -62 l2 -63 7 70 c8 79 5 95 -19 95 -9 0 -25 7 -35 15
-33 25 -41 17 -10 -10z"/>
<path d="M4590 5590 c-9 -6 -10 -10 -3 -10 6 0 15 5 18 10 8 12 4 12 -15 0z"/>
<path d="M2715 5439 c10 -15 135 -72 143 -65 3 3 -12 13 -34 22 -21 9 -56 25
-78 36 -21 11 -35 14 -31 7z"/>
<path d="M5380 5096 c0 -8 72 -37 78 -31 3 3 -1 5 -9 5 -11 0 -11 2 1 10 12 8
9 10 -12 10 -14 0 -33 3 -42 6 -9 3 -16 3 -16 0z"/>
<path d="M5483 5073 c9 -2 23 -2 30 0 6 3 -1 5 -18 5 -16 0 -22 -2 -12 -5z"/>
<path d="M5438 4943 c7 -3 16 -2 19 1 4 3 -2 6 -13 5 -11 0 -14 -3 -6 -6z"/>
<path d="M686 8199 c20 -22 36 -25 28 -5 -3 8 -14 16 -26 19 -19 5 -19 5 -2
-14z"/>
<path d="M928 8208 c5 -5 16 -8 23 -6 8 3 3 7 -10 11 -17 4 -21 3 -13 -5z"/>
<path d="M2794 8181 c20 -22 26 -25 26 -13 0 4 -10 13 -22 21 -23 14 -23 14
-4 -8z"/>
<path d="M1150 8170 c-19 -11 -31 -19 -27 -20 11 0 67 29 67 35 0 7 -1 7 -40
-15z"/>
<path d="M1148 8133 c7 -3 16 -2 19 1 4 3 -2 6 -13 5 -11 0 -14 -3 -6 -6z"/>
<path d="M1148 8046 c-10 -7 -14 -17 -10 -21 4 -5 -1 -5 -11 -2 -22 8 -132
-45 -141 -68 -11 -30 -5 -40 9 -15 9 16 15 19 15 10 1 -10 4 -9 10 5 5 11 9
14 9 6 1 -9 9 -5 24 11 24 26 55 42 75 39 6 -1 20 3 30 8 13 8 14 11 2 11 -12
0 -10 4 4 15 11 8 16 15 10 15 -5 0 -17 -7 -26 -14z"/>
<path d="M860 8016 c0 -2 9 -6 20 -9 11 -3 18 -1 14 4 -5 9 -34 13 -34 5z"/>
<path d="M738 8003 c6 -2 18 -2 25 0 6 3 1 5 -13 5 -14 0 -19 -2 -12 -5z"/>
<path d="M6607 7963 c-15 -21 -49 -59 -76 -85 -28 -27 -47 -48 -42 -48 11 0
125 120 140 148 18 34 7 26 -22 -15z"/>
<path d="M952 7940 c0 -14 2 -19 5 -12 2 6 2 18 0 25 -3 6 -5 1 -5 -13z"/>
<path d="M3499 7931 c-13 -10 -57 -36 -98 -57 l-73 -38 33 -29 c19 -16 63 -46
99 -68 l65 -39 6 53 c25 201 21 220 -32 178z"/>
<path d="M3175 7750 c-32 -4 -61 -13 -63 -19 -2 -6 -8 -9 -12 -6 -5 3 -11 1
-14 -4 -12 -19 138 -121 179 -121 12 0 15 15 15 80 0 91 10 84 -105 70z"/>
<path d="M6778 7705 c-2 -25 0 -45 4 -45 5 0 8 20 8 45 0 25 -2 45 -4 45 -2 0
-6 -20 -8 -45z"/>
<path d="M3058 7655 l4 -43 -40 5 c-21 3 -49 0 -61 -6 -18 -10 -21 -9 -21 6 0
15 -2 15 -9 4 -11 -18 25 -55 46 -47 7 3 12 0 10 -6 -1 -6 17 -22 41 -35 l42
-24 0 90 c0 49 -3 92 -7 94 -5 3 -6 -14 -5 -38z m-68 -60 c0 -7 -30 -13 -34
-7 -3 4 4 9 15 9 10 1 19 0 19 -2z"/>
<path d="M386 7619 c-8 -84 -8 -99 4 -99 6 0 10 18 10 40 0 22 5 40 10 40 6 0
10 18 10 40 0 27 -4 40 -14 40 -9 0 -15 -20 -20 -61z"/>
<path d="M1824 7660 c0 -13 4 -16 10 -10 7 7 7 13 0 20 -6 6 -10 3 -10 -10z"/>
<path d="M3610 7642 c25 -16 95 -60 155 -97 61 -38 137 -87 170 -110 33 -24
121 -79 195 -122 74 -44 178 -107 230 -141 111 -72 261 -154 268 -148 2 3 -36
31 -85 63 -111 73 -159 108 -200 147 -18 16 -33 26 -33 22 0 -4 -7 -1 -15 6
-34 31 -46 39 -84 54 -23 9 -41 19 -41 23 0 9 -78 61 -91 61 -6 0 -7 5 -4 10
3 6 0 10 -7 10 -7 0 -58 30 -113 66 -55 36 -111 70 -125 76 -13 5 -27 12 -30
16 -3 4 -29 19 -59 35 -42 21 -57 25 -68 16 -11 -10 -12 -8 -6 7 6 17 5 17
-10 5 -15 -12 -21 -9 -18 12 0 4 -8 7 -18 7 -11 0 -28 3 -38 6 -10 3 2 -7 27
-24z"/>
<path d="M5615 7540 c-3 -5 1 -10 9 -10 9 0 16 5 16 10 0 6 -4 10 -9 10 -6 0
-13 -4 -16 -10z"/>
<path d="M568 7513 c7 -3 16 -2 19 1 4 3 -2 6 -13 5 -11 0 -14 -3 -6 -6z"/>
<path d="M3411 7505 c3 -2 57 -31 120 -64 81 -42 116 -56 116 -46 0 8 -6 15
-14 15 -7 0 -13 5 -13 10 0 6 -3 9 -7 8 -17 -3 -71 17 -131 49 -59 30 -82 40
-71 28z"/>
<path d="M1635 7480 c28 -12 37 -12 30 0 -3 6 -16 10 -28 9 -21 0 -21 -1 -2
-9z"/>
<path d="M1700 7470 c8 -5 22 -9 30 -9 10 0 8 3 -5 9 -27 12 -43 12 -25 0z"/>
<path d="M511 7424 c0 -11 3 -14 6 -6 3 7 2 16 -1 19 -3 4 -6 -2 -5 -13z"/>
<path d="M3260 7400 c14 -11 32 -20 40 -20 8 0 2 9 -15 20 -39 26 -58 26 -25
0z"/>
<path d="M8457 7361 c-56 -74 -87 -102 -139 -126 l-48 -22 40 -18 c47 -21 97
-68 140 -130 17 -25 35 -45 39 -45 4 0 13 11 19 25 16 35 97 121 140 147 31
19 33 22 16 31 -49 27 -109 86 -136 134 -16 29 -31 53 -32 53 -1 0 -19 -22
-39 -49z"/>
<path d="M3780 7306 c0 -3 14 -12 30 -21 17 -9 30 -13 30 -11 0 3 -13 12 -30
21 -16 9 -30 13 -30 11z"/>
<path d="M3850 7272 c0 -10 50 -35 57 -28 3 2 -9 12 -26 21 -17 8 -31 12 -31
7z"/>
<path d="M3149 7245 c30 -14 56 -24 58 -21 5 4 -54 32 -87 40 -14 3 -1 -5 29
-19z"/>
<path d="M372 7188 c6 -18 28 -21 28 -4 0 9 -7 16 -16 16 -9 0 -14 -5 -12 -12z"/>
<path d="M3710 7136 c0 -2 7 -7 16 -10 8 -3 12 -2 9 4 -6 10 -25 14 -25 6z"/>
<path d="M4254 7125 c22 -17 40 -20 32 -6 -3 5 -16 11 -28 14 -22 6 -22 5 -4
-8z"/>
<path d="M5820 7110 c-9 -6 -10 -10 -3 -10 6 0 15 5 18 10 8 12 4 12 -15 0z"/>
<path d="M3790 7100 c8 -5 20 -10 25 -10 6 0 3 5 -5 10 -8 5 -19 10 -25 10 -5
0 -3 -5 5 -10z"/>
<path d="M7610 7024 c-25 -14 -34 -22 -20 -18 25 7 70 33 70 40 0 5 1 6 -50
-22z"/>
<path d="M7530 6980 c-8 -5 -10 -10 -5 -10 6 0 17 5 25 10 8 5 11 10 5 10 -5
0 -17 -5 -25 -10z"/>
<path d="M7441 6939 c-66 -36 -69 -38 -43 -36 11 0 18 5 15 11 -4 5 1 7 11 3
10 -4 15 -3 11 3 -3 6 3 10 13 10 11 0 30 9 43 20 35 28 12 24 -50 -11z"/>
<path d="M7240 6833 c-69 -36 -174 -90 -233 -119 -97 -50 -125 -75 -79 -73 14
0 14 2 -2 8 -18 7 -18 8 -3 14 9 3 23 5 30 3 6 -1 8 -1 4 2 -7 4 44 33 81 46
14 5 14 3 -2 -9 -21 -16 -10 -21 13 -6 7 5 11 13 7 19 -4 7 14 10 53 8 32 -2
65 1 73 6 8 5 2 6 -17 2 -29 -6 -29 -6 -10 11 l20 17 -20 -7 c-51 -18 -56 -15
-15 10 25 15 60 29 78 32 25 4 30 8 20 15 -9 7 -6 8 10 5 12 -3 20 -2 17 2 -6
11 64 43 77 35 7 -5 8 -2 4 5 -5 7 0 18 10 26 31 23 15 16 -116 -52z"/>
<path d="M265 6870 c4 -6 11 -8 16 -5 14 9 11 15 -7 15 -8 0 -12 -5 -9 -10z"/>
<path d="M7297 6826 c-16 -13 -16 -14 -1 -20 9 -4 19 -4 22 -1 3 3 -1 5 -8 5
-9 0 -7 5 6 15 10 8 15 14 9 14 -5 0 -18 -6 -28 -13z"/>
<path d="M355 6790 c3 -5 15 -10 25 -10 10 0 22 5 25 10 4 6 -7 10 -25 10 -18
0 -29 -4 -25 -10z"/>
<path d="M7701 6793 c-1 -6 -4 -19 -8 -29 -4 -12 -3 -15 5 -10 7 4 12 2 12 -5
0 -7 2 -10 5 -8 2 3 0 18 -4 35 -5 16 -10 24 -10 17z"/>
<path d="M7180 6771 c0 -5 5 -13 10 -16 6 -3 10 -2 10 4 0 5 -4 13 -10 16 -5
3 -10 2 -10 -4z"/>
<path d="M3918 6763 c7 -3 16 -2 19 1 4 3 -2 6 -13 5 -11 0 -14 -3 -6 -6z"/>
<path d="M378 6723 c7 -3 16 -2 19 1 4 3 -2 6 -13 5 -11 0 -14 -3 -6 -6z"/>
<path d="M7670 6710 c-9 -6 -10 -10 -3 -10 6 0 15 5 18 10 8 12 4 12 -15 0z"/>
<path d="M1768 6640 c-39 -39 -84 -78 -99 -87 -34 -20 -36 -29 -9 -43 11 -6
19 -16 17 -23 -1 -7 5 -11 14 -9 9 1 44 -27 79 -63 l64 -64 61 57 c34 31 81
70 103 86 23 17 42 33 42 36 0 4 -27 28 -59 54 -33 25 -74 64 -91 86 -17 22
-36 40 -42 40 -5 0 -42 -32 -80 -70z m92 -27 c0 -5 14 -23 30 -42 17 -18 30
-36 30 -39 0 -3 -17 -23 -37 -46 l-38 -41 -47 49 -48 50 37 38 c33 34 73 50
73 31z"/>
<path d="M6801 6610 c-40 -21 -76 -42 -79 -45 -3 -3 18 -5 47 -4 40 2 60 8 79
26 14 12 21 23 16 23 -13 0 -41 -20 -29 -20 11 0 -16 -20 -28 -20 -5 0 -5 5
-1 12 5 8 2 9 -12 4 -48 -19 -44 -15 11 14 53 27 88 51 75 50 -3 -1 -38 -19
-79 -40z"/>
<path d="M328 6553 c7 -3 16 -2 19 1 4 3 -2 6 -13 5 -11 0 -14 -3 -6 -6z"/>
<path d="M320 6520 c0 -5 7 -10 15 -10 8 0 15 5 15 10 0 6 -7 10 -15 10 -8 0
-15 -4 -15 -10z"/>
<path d="M321 6468 c0 -16 2 -18 6 -8 3 8 11 18 17 22 7 5 4 8 -6 8 -12 0 -18
-7 -17 -22z"/>
<path d="M366 6421 c-4 -7 -5 -15 -2 -18 9 -9 19 4 14 18 -4 11 -6 11 -12 0z"/>
<path d="M1299 6273 c-2 -21 -1 -67 2 -103 5 -59 6 -55 7 38 2 102 -3 135 -9
65z"/>
<path d="M1526 6145 c-3 -8 -1 -15 4 -15 6 0 10 7 10 15 0 8 -2 15 -4 15 -2 0
-6 -7 -10 -15z"/>
<path d="M1547 5910 c-4 -113 -6 -358 -5 -545 1 -339 1 -339 10 175 9 558 7
694 -5 370z"/>
<path d="M1353 6060 c0 -25 2 -35 4 -22 2 12 2 32 0 45 -2 12 -4 2 -4 -23z"/>
<path d="M1504 5915 c0 -104 2 -146 3 -92 2 54 2 139 0 190 -1 51 -3 7 -3 -98z"/>
<path d="M6918 6093 c7 -3 16 -2 19 1 4 3 -2 6 -13 5 -11 0 -14 -3 -6 -6z"/>
<path d="M6688 6022 c7 -5 17 -22 22 -38 l10 -29 -4 28 c-3 24 -1 27 17 21 17
-5 18 -4 7 8 -8 8 -25 15 -39 16 -17 1 -22 -1 -13 -6z"/>
<path d="M6765 6010 c3 -5 14 -10 23 -10 15 0 15 2 2 10 -20 13 -33 13 -25 0z"/>
<path d="M1141 5963 c-1 -23 -4 -48 -7 -57 -5 -12 0 -16 22 -16 23 1 26 3 13
10 -10 6 -15 18 -12 32 2 13 0 34 -6 48 -9 23 -10 21 -10 -17z"/>
<path d="M1313 5960 c0 -25 2 -35 4 -22 2 12 2 32 0 45 -2 12 -4 2 -4 -23z"/>
<path d="M1353 5945 c0 -33 2 -45 4 -27 2 18 2 45 0 60 -2 15 -4 0 -4 -33z"/>
<path d="M1168 5913 c7 -3 16 -2 19 1 4 3 -2 6 -13 5 -11 0 -14 -3 -6 -6z"/>
<path d="M6682 5885 c0 -16 2 -22 5 -12 2 9 2 23 0 30 -3 6 -5 -1 -5 -18z"/>
<path d="M1161 5864 c0 -11 3 -14 6 -6 3 7 2 16 -1 19 -3 4 -6 -2 -5 -13z"/>
<path d="M1694 5650 c0 -118 2 -167 3 -107 2 59 2 155 0 215 -1 59 -3 10 -3
-108z"/>
<path d="M1114 5705 c0 -77 2 -107 3 -67 2 40 2 103 0 140 -2 37 -3 4 -3 -73z"/>
<path d="M1164 5640 c0 -113 2 -159 3 -102 2 56 2 148 0 205 -1 56 -3 10 -3
-103z"/>
<path d="M6916 5818 c-11 -10 -15 -18 -10 -18 6 0 14 4 20 9 5 5 18 11 29 13
l20 4 -20 5 c-12 4 -28 -2 -39 -13z"/>
<path d="M1354 5680 c0 -74 1 -105 3 -67 2 37 2 97 0 135 -2 37 -3 6 -3 -68z"/>
<path d="M6840 5790 c0 -12 8 -12 35 0 18 8 17 9 -7 9 -16 1 -28 -3 -28 -9z"/>
<path d="M1314 5515 c0 -154 2 -216 3 -137 2 79 2 205 0 280 -1 75 -3 11 -3
-143z"/>
<path d="M6755 5740 c-3 -5 -2 -10 4 -10 5 0 13 5 16 10 3 6 2 10 -4 10 -5 0
-13 -4 -16 -10z"/>
<path d="M1505 5250 c0 -250 1 -353 2 -228 2 126 2 330 0 456 -1 125 -2 22 -2
-228z"/>
<path d="M7011 5674 c-28 -15 -50 -29 -47 -32 3 -2 17 3 31 12 14 9 31 14 38
10 7 -4 9 -3 4 1 -4 5 5 14 20 21 16 7 23 13 17 13 -5 1 -34 -11 -63 -25z"/>
<path d="M933 5643 c-19 -7 -16 -21 4 -19 23 1 30 -34 33 -164 2 -80 4 -97 10
-70 9 37 6 146 -5 195 -16 70 -15 69 -42 58z"/>
<path d="M7442 5575 c3 -30 3 -30 48 -4 19 11 26 17 15 13 -41 -13 -61 -16
-47 -6 11 7 11 10 -2 15 -12 5 -15 0 -14 -18z"/>
<path d="M1062 5540 c0 -19 2 -27 5 -17 2 9 2 25 0 35 -3 9 -5 1 -5 -18z"/>
<path d="M1001 5544 c0 -11 3 -14 6 -6 3 7 2 16 -1 19 -3 4 -6 -2 -5 -13z"/>
<path d="M1030 5536 c0 -8 4 -17 9 -20 5 -4 7 3 4 14 -6 23 -13 26 -13 6z"/>
<path d="M1931 5534 c0 -11 3 -14 6 -6 3 7 2 16 -1 19 -3 4 -6 -2 -5 -13z"/>
<path d="M924 5375 c0 -93 2 -133 3 -88 2 45 2 122 0 170 -1 48 -3 12 -3 -82z"/>
<path d="M7755 5520 c5 -8 4 -11 -3 -6 -9 6 -162 -58 -162 -68 0 -2 33 -4 73
-3 39 0 61 3 47 6 -14 3 -26 14 -28 23 -2 15 3 17 30 13 26 -4 29 -3 13 4 -14
7 -15 10 -5 10 8 0 21 -3 29 -8 11 -7 9 -10 -9 -16 -21 -7 -22 -8 -6 -17 10
-5 20 -7 23 -4 4 3 0 6 -8 6 -8 0 -5 6 8 15 23 16 25 46 3 53 -8 3 -10 0 -5
-8z m-108 -66 c-3 -3 -12 -4 -19 -1 -8 3 -5 6 6 6 11 1 17 -2 13 -5z"/>
<path d="M1353 5470 c0 -30 2 -43 4 -27 2 15 2 39 0 55 -2 15 -4 2 -4 -28z"/>
<path d="M1117 5360 c3 -85 7 -157 9 -159 8 -8 2 265 -6 289 -4 14 -6 -45 -3
-130z"/>
<path d="M1933 5475 c0 -22 2 -30 4 -17 2 12 2 30 0 40 -3 9 -5 -1 -4 -23z"/>
<path d="M7490 5397 c-41 -22 -100 -52 -130 -68 -61 -31 -56 -40 6 -10 26 13
43 16 51 10 13 -12 28 5 18 21 -4 6 7 10 27 10 26 0 30 3 18 11 -15 11 -14 11
35 -1 6 -1 19 -2 30 -1 17 1 18 3 5 12 -12 8 -9 9 12 5 15 -3 29 -2 32 3 3 5
-2 8 -11 7 -9 0 -18 5 -20 12 -3 8 1 10 11 6 12 -5 15 -2 10 10 -8 20 -4 21
-94 -27z m37 -11 c0 -8 -6 -12 -15 -9 -11 5 -11 7 0 14 7 5 13 9 14 9 0 0 1
-6 1 -14z"/>
<path d="M1001 5374 c0 -11 3 -14 6 -6 3 7 2 16 -1 19 -3 4 -6 -2 -5 -13z"/>
<path d="M1684 5245 c0 -66 1 -92 3 -57 2 34 2 88 0 120 -2 31 -3 3 -3 -63z"/>
<path d="M7368 5298 c5 -5 16 -8 23 -6 8 3 3 7 -10 11 -17 4 -21 3 -13 -5z"/>
<path d="M7422 5294 c-7 -8 -8 -14 -3 -14 10 0 25 19 20 25 -2 1 -10 -3 -17
-11z"/>
<path d="M1162 5255 c0 -16 2 -22 5 -12 2 9 2 23 0 30 -3 6 -5 -1 -5 -18z"/>
<path d="M7170 5235 c-14 -8 -20 -14 -15 -14 6 0 21 6 35 14 14 8 21 14 15 14
-5 0 -21 -6 -35 -14z"/>
<path d="M1313 5160 c0 -25 2 -35 4 -22 2 12 2 32 0 45 -2 12 -4 2 -4 -23z"/>
<path d="M2071 5184 c0 -11 3 -14 6 -6 3 7 2 16 -1 19 -3 4 -6 -2 -5 -13z"/>
<path d="M1353 5130 c0 -30 2 -43 4 -27 2 15 2 39 0 55 -2 15 -4 2 -4 -28z"/>
<path d="M1124 5055 c0 -55 1 -76 3 -47 2 29 2 74 0 100 -2 26 -3 2 -3 -53z"/>
<path d="M1354 4920 c0 -69 1 -97 3 -62 2 34 2 90 0 125 -2 34 -3 6 -3 -63z"/>
<path d="M7620 5000 c0 -5 7 -7 15 -4 8 4 15 8 15 10 0 2 -7 4 -15 4 -8 0 -15
-4 -15 -10z"/>
<path d="M1682 4975 c0 -16 2 -22 5 -12 2 9 2 23 0 30 -3 6 -5 -1 -5 -18z"/>
<path d="M1542 4935 c0 -16 2 -22 5 -12 2 9 2 23 0 30 -3 6 -5 -1 -5 -18z"/>
<path d="M973 4915 c0 -22 2 -30 4 -17 2 12 2 30 0 40 -3 9 -5 -1 -4 -23z"/>
<path d="M1124 4750 c0 -96 2 -136 3 -87 2 48 2 126 0 175 -1 48 -3 8 -3 -88z"/>
<path d="M934 4725 c0 -49 1 -71 3 -48 2 23 2 64 0 90 -2 26 -3 8 -3 -42z"/>
<path d="M1502 4740 c0 -14 2 -19 5 -12 2 6 2 18 0 25 -3 6 -5 1 -5 -13z"/>
<path d="M971 4654 c0 -11 3 -14 6 -6 3 7 2 16 -1 19 -3 4 -6 -2 -5 -13z"/>
<path d="M6675 4500 c-3 -5 1 -10 9 -10 9 0 16 5 16 10 0 6 -4 10 -9 10 -6 0
-13 -4 -16 -10z"/>
<path d="M560 4440 c0 -22 5 -40 10 -40 6 0 10 18 10 40 0 22 -4 40 -10 40 -5
0 -10 -18 -10 -40z"/>
<path d="M2763 4417 c1 -15 5 -27 10 -27 4 0 9 0 12 0 9 1 31 -24 38 -44 6
-14 11 -16 19 -8 7 7 17 8 28 2 22 -12 110 -19 110 -9 0 4 -21 9 -47 11 -39 2
-50 7 -58 25 -6 15 -15 21 -27 17 -13 -4 -19 2 -24 20 -3 14 -10 24 -14 21 -5
-3 -11 1 -14 7 -5 10 -7 10 -12 -1 -5 -10 -8 -11 -14 -1 -5 8 -7 3 -7 -13z"/>
<path d="M3945 4340 c-3 -5 -1 -10 4 -10 6 0 11 5 11 10 0 6 -2 10 -4 10 -3 0
-8 -4 -11 -10z"/>
<path d="M660 4120 c0 -29 4 -40 15 -40 11 0 15 11 15 40 0 29 -4 40 -15 40
-11 0 -15 -11 -15 -40z"/>
<path d="M721 4094 c0 -11 3 -14 6 -6 3 7 2 16 -1 19 -3 4 -6 -2 -5 -13z"/>
<path d="M891 3614 c0 -11 3 -14 6 -6 3 7 2 16 -1 19 -3 4 -6 -2 -5 -13z"/>
<path d="M1665 3410 c3 -5 8 -10 11 -10 2 0 4 5 4 10 0 6 -5 10 -11 10 -5 0
-7 -4 -4 -10z"/>
<path d="M1156 3223 c-11 -11 -6 -23 9 -23 8 0 15 4 15 9 0 13 -16 22 -24 14z"/>
<path d="M2724 2440 c0 -10 5 -16 10 -13 5 4 7 -1 3 -10 -3 -10 -2 -17 3 -17
11 0 24 39 16 48 -14 13 -32 9 -32 -8z"/>
<path d="M4524 2385 c-10 -69 -7 -128 7 -120 5 4 9 -2 10 -12 1 -13 3 -11 9 7
l8 25 1 -27 c1 -16 6 -28 11 -28 6 0 10 -7 10 -15 0 -10 9 -15 28 -14 15 0 21
3 15 6 -10 3 -9 9 3 21 14 13 15 29 10 89 l-6 73 45 0 c32 0 47 5 52 16 10 26
-8 32 -103 36 l-91 3 -9 -60z m176 35 c-20 -13 -100 -13 -100 0 0 6 26 10 58
10 40 0 53 -3 42 -10z"/>
<path d="M6122 2418 c-34 -55 -82 -164 -82 -184 0 -21 20 -57 20 -36 0 6 5 12
11 12 5 0 7 -6 4 -12 -4 -7 3 -2 14 12 11 14 21 33 21 43 0 21 26 23 33 3 4
-10 1 -13 -9 -9 -10 4 -12 0 -8 -11 3 -9 10 -16 15 -16 5 0 9 -8 10 -17 1 -12
4 -9 8 7 l7 25 7 -27 c4 -16 12 -28 18 -28 6 0 7 5 4 10 -8 12 -3 13 28 1 21
-8 26 -6 31 12 9 34 7 67 -5 80 -6 7 -28 46 -48 87 -20 41 -41 76 -47 78 -7 1
-21 -12 -32 -30z m67 -112 c22 -14 10 -21 -28 -18 -24 3 -38 8 -36 15 3 7 9
26 15 42 l12 30 13 -31 c7 -18 18 -35 24 -38z"/>
<path d="M6285 2431 c-10 -31 3 -60 31 -67 16 -4 24 -13 24 -28 0 -11 3 -32 5
-46 5 -22 4 -22 -4 -5 -8 17 -10 16 -10 -12 -1 -27 -5 -33 -23 -34 -13 0 -17
-3 -10 -6 6 -2 12 -11 12 -19 0 -9 4 -13 9 -10 5 4 11 0 14 -6 3 -9 11 -4 25
12 12 14 21 19 22 13 0 -7 -5 -13 -11 -13 -5 0 -7 -5 -4 -10 4 -6 12 -5 20 4
11 11 13 30 8 79 -7 78 -1 97 25 90 14 -3 18 -11 15 -26 -4 -17 -3 -19 6 -7
13 19 21 10 28 -36 4 -21 12 -45 20 -52 15 -16 18 -52 3 -52 -5 0 -10 -4 -10
-8 0 -4 21 -7 48 -6 63 2 62 2 62 20 0 8 5 12 10 9 6 -4 8 -11 5 -16 -4 -5 6
-9 22 -8 25 0 26 1 8 9 -15 7 -16 9 -4 9 9 1 28 10 41 21 14 10 28 17 32 15 3
-3 4 -2 2 1 -3 3 3 20 13 37 17 31 17 33 -3 72 -15 28 -31 43 -55 51 -32 10
-33 12 -15 22 42 24 -45 12 -92 -13 -25 -14 -51 -22 -57 -18 -5 3 -30 5 -54 4
-29 -1 -52 5 -71 18 -15 11 -39 23 -54 26 -21 5 -27 3 -33 -14z m178 -46 c-3
-9 -8 -14 -10 -11 -3 3 -2 9 2 15 9 16 15 13 8 -4z m186 -32 c28 -21 51 -43
51 -49 0 -6 -11 -21 -25 -34 l-25 -24 -28 21 c-15 11 -37 35 -50 53 -21 31
-21 34 -6 52 23 24 25 24 83 -19z"/>
<path d="M4260 2425 c7 -8 17 -15 22 -15 5 0 3 7 -6 15 -8 8 -18 15 -22 15 -3
0 -1 -7 6 -15z"/>
<path d="M4945 2421 c-16 -10 -39 -28 -49 -40 -13 -14 -31 -21 -53 -21 -33 0
-68 -21 -56 -33 5 -6 8 -24 12 -69 1 -11 6 -15 16 -12 8 4 15 1 15 -5 0 -21 3
-26 27 -48 22 -21 34 -24 91 -27 9 -1 16 4 15 11 -2 7 3 10 10 7 7 -2 27 3 43
12 l29 16 -35 -6 -35 -6 41 25 c44 26 60 60 48 98 -9 28 -22 37 -57 37 -31 0
-45 -23 -27 -45 9 -11 17 -12 31 -4 14 7 19 6 19 -3 -1 -45 -55 -50 -79 -7
-30 54 16 111 73 89 39 -15 52 -2 25 26 -27 29 -63 31 -104 5z"/>
<path d="M5119 2431 c-1 -12 2 -121 6 -166 3 -38 1 -45 -14 -45 -9 0 -25 -6
-35 -13 -16 -12 -16 -14 11 -26 39 -19 83 -26 147 -23 33 2 37 4 26 17 -10 13
-9 15 9 15 12 0 20 -4 16 -9 -3 -5 -1 -12 4 -15 5 -4 11 4 13 16 2 12 9 23 16
24 7 1 8 0 2 -3 -16 -8 -12 -26 5 -19 9 3 15 0 15 -9 0 -11 5 -10 20 5 25 25
25 30 1 30 -11 0 -21 6 -24 13 -3 9 -9 9 -26 -1 -20 -11 -21 -10 -21 23 l0 35
-55 -6 c-55 -7 -55 -7 -55 20 0 26 2 27 51 24 l51 -3 1 58 2 57 -82 4 c-46 2
-83 1 -84 -3z m135 -37 c24 -9 19 -41 -6 -48 -52 -13 -68 -8 -68 24 0 26 3 30
29 30 16 0 36 -3 45 -6z"/>
<path d="M5350 2332 l0 -108 28 -10 27 -10 -3 73 c-2 40 0 73 5 73 16 0 95
-134 85 -145 -4 -4 4 -2 18 5 14 8 27 13 30 12 2 -1 2 15 0 36 -3 20 -5 70 -5
110 0 62 -2 72 -17 72 -15 0 -18 -10 -18 -67 l0 -67 -23 30 c-41 53 -95 104
-111 104 -14 0 -16 -17 -16 -108z"/>
<path d="M5585 2335 l0 -104 35 -10 35 -10 -33 3 c-20 1 -29 -1 -23 -7 5 -5
28 -8 50 -5 23 2 41 1 41 -2 0 -3 13 -5 29 -6 22 -1 30 4 33 20 8 46 -1 56
-53 56 -46 0 -49 2 -49 25 0 23 4 25 45 25 36 0 45 -4 47 -17 1 -10 4 14 7 52
3 39 5 73 3 78 -2 4 -40 7 -86 7 l-82 0 1 -105z m155 40 c0 -23 -4 -25 -45
-25 -41 0 -45 2 -45 25 0 23 4 25 45 25 41 0 45 -2 45 -25z"/>
<path d="M5827 2326 c-3 -61 -4 -111 -3 -112 0 -1 13 -4 29 -8 l27 -6 0 100
c0 94 1 100 20 100 13 0 24 -10 30 -26 15 -38 13 -44 -15 -44 -29 0 -29 0 -13
-54 13 -42 29 -66 46 -66 6 0 15 -12 21 -27 l11 -28 -4 28 c-2 15 1 27 5 27 5
0 9 -4 9 -9 0 -5 9 -7 20 -4 12 3 20 0 20 -8 0 -7 3 -10 6 -6 11 11 -7 46 -22
40 -8 -3 -14 1 -14 10 0 8 -10 21 -22 29 -20 13 -21 17 -9 45 7 17 11 46 9 64
-4 39 -27 54 -99 61 l-46 5 -6 -111z"/>
<path d="M6800 2330 l0 -100 25 0 c27 0 29 5 26 63 -3 49 5 47 29 -8 14 -32
26 -46 45 -51 14 -3 28 -5 30 -2 2 2 -4 21 -14 43 -13 30 -27 43 -54 53 -29
10 -37 19 -37 38 0 13 5 24 11 24 18 0 53 -21 71 -44 17 -21 18 -21 18 17 0
43 -11 50 -97 61 l-53 7 0 -101z"/>
<path d="M6452 2295 c0 -16 2 -22 5 -12 2 9 2 23 0 30 -3 6 -5 -1 -5 -18z"/>
<path d="M4428 2203 c7 -3 16 -2 19 1 4 3 -2 6 -13 5 -11 0 -14 -3 -6 -6z"/>
<path d="M5003 2176 c-9 -11 -7 -13 11 -13 13 0 23 6 23 13 0 18 -18 17 -34 0z"/>
<path d="M3935 2110 c3 -5 19 -10 36 -10 16 0 29 5 29 10 0 6 -16 10 -36 10
-21 0 -33 -4 -29 -10z"/>
<path d="M2413 2083 c9 -2 23 -2 30 0 6 3 -1 5 -18 5 -16 0 -22 -2 -12 -5z"/>
<path d="M2750 1560 c0 -22 5 -40 10 -40 6 0 10 18 10 40 0 22 -4 40 -10 40
-5 0 -10 -18 -10 -40z"/>
<path d="M2800 1560 c0 -22 5 -40 10 -40 6 0 10 18 10 40 0 22 -4 40 -10 40
-5 0 -10 -18 -10 -40z"/>
<path d="M2960 1456 c0 -9 5 -16 10 -16 6 0 10 4 10 9 0 6 -4 13 -10 16 -5 3
-10 -1 -10 -9z"/>
<path d="M3680 1050 c0 -5 7 -10 16 -10 8 0 12 5 9 10 -3 6 -10 10 -16 10 -5
0 -9 -4 -9 -10z"/>
<path d="M3555 1030 c4 -6 11 -8 16 -5 14 9 11 15 -7 15 -8 0 -12 -5 -9 -10z"/>
<path d="M9292 910 c0 -19 2 -27 5 -17 2 9 2 25 0 35 -3 9 -5 1 -5 -18z"/>
<path d="M9315 880 c-4 -6 -3 -44 0 -85 5 -51 4 -75 -3 -75 -6 0 -12 19 -14
43 -2 23 -3 -139 -3 -361 l0 -402 28 0 27 0 -4 203 c-2 111 -5 219 -5 240 -1
26 -5 37 -16 37 -8 0 -15 4 -15 9 0 5 7 16 15 25 19 18 20 102 3 109 -10 4
-10 8 1 15 12 8 12 27 1 120 -7 60 -9 115 -6 121 4 6 5 11 2 11 -3 0 -8 -5
-11 -10z m15 -200 c0 -16 -4 -30 -10 -30 -5 0 -10 14 -10 30 0 17 5 30 10 30
6 0 10 -13 10 -30z m-3 -342 c-3 -8 -6 -5 -6 6 -1 11 2 17 5 13 3 -3 4 -12 1
-19z"/>
<path d="M9343 840 c0 -25 2 -35 4 -22 2 12 2 32 0 45 -2 12 -4 2 -4 -23z"/>
<path d="M9915 818 c-3 -35 -4 -150 -2 -255 3 -174 2 -195 -14 -209 -16 -14
-18 -14 -28 5 -6 11 -10 30 -8 42 1 12 -4 24 -10 26 -9 3 -13 -6 -14 -24 0
-15 -3 -22 -6 -15 -11 29 -18 7 -20 -68 -2 -65 0 -80 12 -80 8 0 15 -4 15 -10
0 -5 -7 -7 -15 -4 -10 4 -15 0 -15 -15 0 -14 5 -19 15 -15 9 4 15 0 15 -10 0
-10 -6 -13 -16 -9 -12 5 -15 -1 -12 -28 2 -21 8 -33 16 -31 6 1 12 -7 12 -18
0 -11 -5 -20 -11 -20 -6 0 -8 -9 -4 -21 4 -13 0 -27 -11 -40 -17 -19 -14 -19
204 -19 l222 0 0 225 0 225 -40 0 c-36 0 -40 -2 -40 -25 0 -18 -5 -25 -20 -25
-17 0 -20 7 -20 40 0 23 -5 40 -11 40 -8 0 -10 -18 -5 -61 3 -34 6 -70 6 -80
0 -11 7 -19 15 -19 18 0 20 -16 3 -26 -6 -4 -16 0 -23 9 -7 10 -22 17 -34 17
-24 0 -28 18 -6 26 8 4 15 16 15 28 -1 18 -7 14 -43 -25 -48 -52 -67 -47 -67
16 0 35 23 51 33 23 2 -8 8 -9 13 -4 5 5 4 11 -3 13 -7 3 -13 10 -13 16 -1 7
-15 21 -33 32 -18 11 -31 24 -29 28 1 4 2 25 2 47 0 29 4 40 15 40 8 0 15 8
15 18 0 45 -35 302 -41 302 -4 0 -10 -28 -14 -62z m55 -548 c0 -11 -4 -20 -10
-20 -5 0 -10 9 -10 20 0 11 5 20 10 20 6 0 10 -9 10 -20z m-62 -17 c2 -8 -5
-13 -17 -13 -12 0 -21 6 -21 16 0 18 31 15 38 -3z m42 -28 c0 -8 -4 -15 -10
-15 -5 0 -10 7 -10 15 0 8 5 15 10 15 6 0 10 -7 10 -15z m37 -7 c-3 -8 -6 -5
-6 6 -1 11 2 17 5 13 3 -3 4 -12 1 -19z m-60 -50 c-3 -8 -6 -5 -6 6 -1 11 2
17 5 13 3 -3 4 -12 1 -19z m40 0 c-3 -8 -6 -5 -6 6 -1 11 2 17 5 13 3 -3 4
-12 1 -19z m-107 -117 c0 -6 -4 -13 -10 -16 -5 -3 -10 1 -10 9 0 9 5 16 10 16
6 0 10 -4 10 -9z m325 -11 c-3 -5 -10 -10 -16 -10 -5 0 -9 5 -9 10 0 6 7 10
16 10 8 0 12 -4 9 -10z"/>
<path d="M3840 824 c0 -12 6 -15 23 -10 12 3 27 6 32 6 6 0 3 5 -5 10 -23 15
-50 12 -50 -6z"/>
<path d="M4001 814 c0 -11 3 -14 6 -6 3 7 2 16 -1 19 -3 4 -6 -2 -5 -13z"/>
<path d="M4071 814 c0 -11 3 -14 6 -6 3 7 2 16 -1 19 -3 4 -6 -2 -5 -13z"/>
<path d="M9994 796 c-3 -8 -4 -29 -2 -48 3 -29 4 -27 8 15 5 48 3 58 -6 33z"/>
<path d="M8622 745 c0 -16 2 -22 5 -12 2 9 2 23 0 30 -3 6 -5 -1 -5 -18z"/>
<path d="M8270 730 c0 -5 5 -10 11 -10 5 0 7 5 4 10 -3 6 -8 10 -11 10 -2 0
-4 -4 -4 -10z"/>
<path d="M8220 640 c0 -72 2 -80 19 -80 15 0 20 9 23 46 2 31 -1 48 -9 51 -7
3 -13 18 -13 34 0 16 -4 29 -10 29 -6 0 -10 -33 -10 -80z"/>
<path d="M9210 595 c-3 -71 -5 -131 -5 -132 0 -1 5 1 10 5 6 4 8 56 5 132 l-5
125 -5 -130z"/>
<path d="M8615 553 c-5 -82 -9 -188 -10 -238 -1 -109 -4 -128 -15 -95 -5 16
-8 -21 -9 -97 -1 -123 -1 -123 23 -123 l23 0 0 350 c0 193 -1 350 -2 350 -1 0
-6 -66 -10 -147z"/>
<path d="M4560 675 c0 -9 9 -15 25 -15 14 0 25 -4 25 -10 0 -5 7 -10 15 -10
20 0 19 13 -3 33 -23 21 -62 22 -62 2z"/>
<path d="M8590 650 c0 -19 3 -21 12 -12 9 9 9 15 0 24 -9 9 -12 7 -12 -12z"/>
<path d="M10000 650 c0 -5 7 -10 16 -10 8 0 12 5 9 10 -3 6 -10 10 -16 10 -5
0 -9 -4 -9 -10z"/>
<path d="M9834 636 c-3 -8 -4 -29 -2 -48 3 -29 4 -27 8 15 5 48 3 58 -6 33z"/>
<path d="M8729 359 c-1 -156 -5 -270 -9 -254 l-8 30 -1 -32 c0 -17 -5 -34 -10
-38 -5 -3 -9 -19 -9 -35 1 -26 5 -30 29 -30 l27 0 -5 317 c-3 175 -7 320 -9
322 -2 2 -5 -124 -5 -280z"/>
<path d="M9007 610 c-3 -11 -3 -47 0 -80 4 -37 1 -71 -7 -90 -9 -21 -13 -95
-14 -235 l-1 -205 33 0 c28 0 32 3 32 26 0 14 -5 35 -11 46 -8 16 -8 19 1 13
8 -5 10 -2 6 11 -3 11 -8 80 -11 154 -9 254 -15 374 -19 377 -2 2 -6 -5 -9
-17z"/>
<path d="M8483 471 c0 -53 3 -72 5 -43 3 51 21 74 23 30 1 -19 2 -20 6 -4 3
10 -1 30 -8 43 -10 18 -10 29 -2 43 10 15 9 19 -7 23 -18 4 -19 -2 -17 -92z"/>
<path d="M9623 520 c0 -25 2 -35 4 -22 2 12 2 32 0 45 -2 12 -4 2 -4 -23z"/>
<path d="M8580 530 c-13 -9 -13 -11 0 -20 22 -15 30 -12 30 10 0 22 -8 25 -30
10z"/>
<path d="M10190 520 c0 -5 5 -10 10 -10 6 0 10 5 10 10 0 6 -4 10 -10 10 -5 0
-10 -4 -10 -10z"/>
<path d="M9528 490 c-7 -24 -3 -38 8 -28 3 4 4 17 2 30 l-3 23 -7 -25z"/>
<path d="M8250 490 c-8 -5 -32 -10 -52 -10 -38 0 -38 0 -38 -40 l0 -40 -50 0
c-43 0 -50 3 -50 20 0 11 5 20 10 20 6 0 10 9 10 20 0 11 -4 20 -10 20 -5 0
-10 -9 -10 -20 0 -11 -7 -23 -15 -26 -8 -4 -15 -12 -15 -20 0 -8 -7 -14 -15
-14 -11 0 -15 -11 -15 -40 l0 -40 40 0 c29 0 40 -4 40 -15 0 -11 -11 -15 -40
-15 -29 0 -40 4 -40 15 0 12 -14 15 -65 15 l-65 0 0 -40 c0 -46 -26 -58 -32
-15 -3 24 -4 25 -25 10 -21 -15 -23 -24 -23 -106 0 -72 -3 -89 -15 -89 -11 0
-15 11 -15 40 l0 40 -80 0 -80 0 0 -40 0 -40 -40 0 c-22 0 -40 5 -40 10 0 6
-18 10 -40 10 -38 0 -40 2 -40 30 0 20 -5 30 -15 30 -11 0 -15 11 -15 40 0 22
-4 40 -10 40 -5 0 -10 -18 -10 -40 0 -33 -3 -40 -20 -40 -17 0 -20 -7 -20 -40
0 -38 -2 -40 -30 -40 -28 0 -30 2 -31 43 -1 23 -3 34 -6 25 -6 -24 -83 -26
-83 -3 0 11 -11 15 -40 15 -29 0 -40 -4 -40 -15 0 -11 -11 -15 -40 -15 -36 0
-40 -2 -40 -25 0 -22 -4 -25 -40 -25 l-40 0 0 -40 0 -40 434 0 c405 0 435 1
439 17 4 17 5 17 6 1 1 -17 22 -18 299 -18 l298 0 -4 137 c-3 95 -8 141 -18
150 -15 15 -54 17 -54 3 0 -5 6 -10 14 -10 8 0 18 -5 22 -12 11 -17 12 -128 2
-128 -4 0 -8 21 -8 46 0 33 -5 51 -17 60 -21 16 -53 18 -53 4 0 -5 -7 -10 -15
-10 -11 0 -15 11 -15 40 0 36 -2 40 -25 40 -25 0 -25 1 -25 80 0 64 3 80 15
80 8 0 15 5 15 10 0 12 -1 12 -20 0z m-306 -235 c3 -9 0 -15 -9 -15 -8 0 -15
7 -15 15 0 8 4 15 9 15 5 0 11 -7 15 -15z m-69 -185 c-8 -13 -35 -13 -35 0 0
6 9 10 21 10 11 0 17 -4 14 -10z"/>
<path d="M9845 490 c-3 -5 -1 -10 4 -10 6 0 11 5 11 10 0 6 -2 10 -4 10 -3 0
-8 -4 -11 -10z"/>
<path d="M8579 441 c4 -49 7 -47 13 10 2 20 -1 36 -7 36 -6 0 -8 -19 -6 -46z"/>
<path d="M5105 470 c3 -5 8 -10 11 -10 2 0 4 5 4 10 0 6 -5 10 -11 10 -5 0 -7
-4 -4 -10z"/>
<path d="M7870 440 c0 -22 5 -40 10 -40 6 0 10 18 10 40 0 22 -4 40 -10 40 -5
0 -10 -18 -10 -40z"/>
<path d="M8804 390 c-6 -47 -7 -99 -3 -117 3 -18 3 -33 -1 -35 -4 -2 -10 -47
-12 -100 -3 -54 -1 -95 3 -92 5 3 9 -6 9 -20 0 -19 5 -26 19 -26 19 0 20 7 14
187 -3 104 -8 211 -12 238 l-7 50 -10 -85z"/>
<path d="M8406 451 c-4 -7 -5 -15 -2 -18 9 -9 19 4 14 18 -4 11 -6 11 -12 0z"/>
<path d="M9439 425 c-1 -22 -3 -50 -4 -62 -1 -28 -24 -55 -27 -32 -1 7 -5 -51
-9 -131 -4 -80 -10 -157 -14 -172 -7 -27 -6 -28 36 -28 l44 0 -6 114 c-3 62
-9 118 -13 125 -4 6 -2 11 3 11 15 0 14 53 -1 69 -7 8 -8 11 -2 8 12 -7 30
120 19 131 -3 3 -6 -10 -6 -29 l-2 -34 -7 35 -7 35 -4 -40z"/>
<path d="M10042 436 c-14 -30 -9 -47 9 -29 6 6 9 21 7 34 -3 23 -3 23 -16 -5z"/>
<path d="M9820 439 c0 -5 5 -7 10 -4 6 3 10 8 10 11 0 2 -4 4 -10 4 -5 0 -10
-5 -10 -11z"/>
<path d="M9198 381 c-3 -26 -2 -70 1 -97 3 -27 4 -83 1 -124 -3 -41 -3 -94 -1
-117 2 -36 6 -43 25 -43 21 0 21 1 18 202 -1 112 -5 209 -7 216 -2 6 -11 12
-18 12 -10 0 -16 -16 -19 -49z"/>
<path d="M5120 410 c0 -5 7 -10 16 -10 8 0 12 5 9 10 -3 6 -10 10 -16 10 -5 0
-9 -4 -9 -10z"/>
<path d="M9517 406 c-5 -12 -7 -109 -6 -281 0 -11 -2 -44 -4 -72 l-3 -53 39 0
39 0 -7 39 c-3 21 -6 90 -6 152 0 142 -31 269 -52 215z m30 -218 c-3 -8 -6 -5
-6 6 -1 11 2 17 5 13 3 -3 4 -12 1 -19z m2 -70 c0 -35 -2 -39 -9 -21 -8 19 -3
63 6 63 2 0 4 -19 3 -42z"/>
<path d="M8412 375 c0 -16 2 -22 5 -12 2 9 2 23 0 30 -3 6 -5 -1 -5 -18z"/>
<path d="M9627 278 c-4 -66 -7 -156 -7 -200 0 -71 2 -78 20 -78 19 0 20 7 20
200 0 161 -3 200 -13 200 -11 0 -16 -30 -20 -122z"/>
<path d="M9716 374 c-4 -14 -7 -90 -7 -168 0 -77 -1 -154 -2 -171 -2 -29 0
-30 43 -33 l45 -3 -23 24 c-12 13 -20 26 -17 29 3 2 7 57 9 120 3 91 0 126
-14 167 -21 64 -26 69 -34 35z"/>
<path d="M9401 364 c0 -11 3 -14 6 -6 3 7 2 16 -1 19 -3 4 -6 -2 -5 -13z"/>
<path d="M5005 360 c-3 -5 3 -10 14 -10 12 0 21 5 21 10 0 6 -6 10 -14 10 -8
0 -18 -4 -21 -10z"/>
<path d="M8477 354 c-2 -11 -6 -93 -7 -184 l-2 -166 32 -2 31 -2 -2 102 c-3
143 -9 188 -24 188 -15 0 -26 35 -14 47 4 4 4 14 0 22 -7 11 -10 10 -14 -5z"/>
<path d="M8582 340 c0 -14 2 -19 5 -12 2 6 2 18 0 25 -3 6 -5 1 -5 -13z"/>
<path d="M8370 335 c0 -8 5 -15 10 -15 6 0 10 7 10 15 0 8 -4 15 -10 15 -5 0
-10 -7 -10 -15z"/>
<path d="M7360 330 c0 -5 18 -10 40 -10 22 0 40 5 40 10 0 6 -18 10 -40 10
-22 0 -40 -4 -40 -10z"/>
<path d="M8505 330 c-3 -5 -1 -10 4 -10 6 0 11 5 11 10 0 6 -2 10 -4 10 -3 0
-8 -4 -11 -10z"/>
<path d="M4973 323 c9 -2 23 -2 30 0 6 3 -1 5 -18 5 -16 0 -22 -2 -12 -5z"/>
<path d="M5550 280 c0 -22 5 -40 10 -40 6 0 10 18 10 40 0 22 -4 40 -10 40 -5
0 -10 -18 -10 -40z"/>
<path d="M8931 278 c0 -21 -5 -38 -10 -38 -6 0 -12 -17 -14 -37 -2 -21 -3 -8
-1 30 2 37 -1 67 -6 67 -5 0 -8 -66 -7 -150 1 -83 4 -150 8 -150 3 0 12 55 20
123 12 105 15 116 20 77 5 -40 6 -41 7 -10 0 19 -3 55 -7 80 l-8 45 -2 -37z"/>
<path d="M8581 284 c0 -11 3 -14 6 -6 3 7 2 16 -1 19 -3 4 -6 -2 -5 -13z"/>
<path d="M9090 284 c0 -8 5 -12 10 -9 6 4 8 11 5 16 -9 14 -15 11 -15 -7z"/>
<path d="M7172 283 c-15 -6 -6 -23 14 -23 8 0 14 7 14 15 0 15 -6 17 -28 8z"/>
<path d="M9133 273 c-7 -3 -13 -16 -13 -29 0 -15 -6 -24 -15 -24 -12 0 -15
-19 -15 -110 l0 -110 34 0 34 0 -4 137 c-3 75 -6 138 -7 139 -1 1 -8 -1 -14
-3z"/>
<path d="M5768 243 c7 -3 16 -2 19 1 4 3 -2 6 -13 5 -11 0 -14 -3 -6 -6z"/>
<path d="M5820 200 c0 -22 5 -40 10 -40 6 0 10 -22 10 -50 0 -47 -11 -63 -25
-40 -4 6 -65 10 -151 10 l-144 0 0 -40 0 -40 40 0 c33 0 40 3 40 20 0 19 7 20
99 20 94 0 99 -1 94 -20 -5 -20 0 -20 461 -20 l466 0 0 25 c0 22 -4 25 -39 25
-22 0 -41 -5 -44 -12 -6 -19 -63 25 -59 46 2 9 -2 16 -8 16 -5 0 -10 9 -10 20
0 11 5 20 10 20 6 0 10 5 10 10 0 6 -37 10 -90 10 -73 0 -90 -3 -90 -15 0 -11
-11 -15 -40 -15 -29 0 -40 -4 -40 -15 0 -11 -11 -15 -40 -15 -38 0 -40 2 -40
30 l0 30 -80 0 c-79 0 -80 0 -80 25 0 23 -4 25 -40 25 -29 0 -40 4 -40 15 0
11 -11 15 -40 15 l-40 0 0 -40 c0 -41 -21 -57 -34 -25 -3 8 -15 15 -26 15 -15
0 -20 7 -20 25 0 14 -4 25 -10 25 -5 0 -10 -18 -10 -40z m580 -128 c0 -5 -13
-7 -30 -4 -16 2 -30 6 -30 8 0 2 14 4 30 4 17 0 30 -4 30 -8z m-530 -38 c0 -2
-7 -4 -15 -4 -8 0 -15 4 -15 10 0 5 7 7 15 4 8 -4 15 -8 15 -10z m480 2 c0 -2
-7 -6 -15 -10 -8 -3 -15 -1 -15 4 0 6 7 10 15 10 8 0 15 -2 15 -4z"/>
<path d="M8712 160 c0 -14 2 -19 5 -12 2 6 2 18 0 25 -3 6 -5 1 -5 -13z"/>
<path d="M8920 65 c0 -8 5 -15 10 -15 6 0 10 7 10 15 0 8 -4 15 -10 15 -5 0
-10 -7 -10 -15z"/>
<path d="M8951 64 c0 -11 3 -14 6 -6 3 7 2 16 -1 19 -3 4 -6 -2 -5 -13z"/>
<path d="M8921 14 c0 -11 3 -14 6 -6 3 7 2 16 -1 19 -3 4 -6 -2 -5 -13z"/>
</g>
</svg>
